<mxfile host="Electron" modified="2023-06-15T17:51:30.427Z" agent="Mozilla/5.0 (Windows NT 10.0; Win64; x64) AppleWebKit/537.36 (KHTML, like Gecko) draw.io/21.4.0 Chrome/112.0.5615.204 Electron/24.5.1 Safari/537.36" etag="wHBbdrX1sA7YXuJQXJLc" version="21.4.0" type="device">
  <diagram name="Page-1" id="d149U7RTgLoQveZ-3d7z">
    <mxGraphModel dx="2084" dy="1899" grid="1" gridSize="10" guides="1" tooltips="1" connect="1" arrows="1" fold="1" page="1" pageScale="1" pageWidth="827" pageHeight="1169" math="0" shadow="0">
      <root>
        <mxCell id="0" />
        <mxCell id="1" parent="0" />
        <mxCell id="NqdS10v-dnyxQDhLEZVA-267" value="" style="rounded=0;whiteSpace=wrap;html=1;fontFamily=UGent Panno Text;fontSize=22;fillColor=#f5f5f5;strokeColor=#666666;movable=1;resizable=1;rotatable=1;deletable=1;editable=1;locked=0;connectable=1;fontColor=#333333;" vertex="1" parent="1">
          <mxGeometry x="150" y="190" width="470" height="370" as="geometry" />
        </mxCell>
        <mxCell id="NqdS10v-dnyxQDhLEZVA-263" value="" style="group;movable=0;resizable=0;rotatable=0;deletable=0;editable=0;locked=1;connectable=0;fillColor=#f5f5f5;fontColor=#333333;strokeColor=#666666;" vertex="1" connectable="0" parent="1">
          <mxGeometry x="210" y="310" width="350" height="220" as="geometry" />
        </mxCell>
        <mxCell id="NqdS10v-dnyxQDhLEZVA-14" value="" style="rounded=0;whiteSpace=wrap;html=1;fontFamily=UGent Panno Text;fontSize=22;fontColor=default;fillColor=none;gradientColor=none;" vertex="1" parent="NqdS10v-dnyxQDhLEZVA-263">
          <mxGeometry width="350" height="220" as="geometry" />
        </mxCell>
        <mxCell id="NqdS10v-dnyxQDhLEZVA-262" value="" style="group" vertex="1" connectable="0" parent="NqdS10v-dnyxQDhLEZVA-263">
          <mxGeometry x="10" y="10" width="330" height="200" as="geometry" />
        </mxCell>
        <mxCell id="NqdS10v-dnyxQDhLEZVA-16" value="" style="rounded=0;whiteSpace=wrap;html=1;rotation=-60;" vertex="1" parent="NqdS10v-dnyxQDhLEZVA-262">
          <mxGeometry x="28.06122448979592" y="60" width="17.06122448979592" height="7.317073170731707" as="geometry" />
        </mxCell>
        <mxCell id="NqdS10v-dnyxQDhLEZVA-18" value="" style="rounded=0;whiteSpace=wrap;html=1;rotation=60;" vertex="1" parent="NqdS10v-dnyxQDhLEZVA-262">
          <mxGeometry x="62.183673469387756" y="60" width="17.06122448979592" height="7.317073170731707" as="geometry" />
        </mxCell>
        <mxCell id="NqdS10v-dnyxQDhLEZVA-19" style="edgeStyle=orthogonalEdgeStyle;rounded=0;orthogonalLoop=1;jettySize=auto;html=1;exitX=0;exitY=0.75;exitDx=0;exitDy=0;entryX=1;entryY=0.75;entryDx=0;entryDy=0;endArrow=none;endFill=0;" edge="1" parent="NqdS10v-dnyxQDhLEZVA-262" source="NqdS10v-dnyxQDhLEZVA-23" target="NqdS10v-dnyxQDhLEZVA-16">
          <mxGeometry relative="1" as="geometry" />
        </mxCell>
        <mxCell id="NqdS10v-dnyxQDhLEZVA-20" style="edgeStyle=orthogonalEdgeStyle;rounded=0;orthogonalLoop=1;jettySize=auto;html=1;exitX=1;exitY=0.75;exitDx=0;exitDy=0;entryX=0;entryY=0.75;entryDx=0;entryDy=0;endArrow=none;endFill=0;" edge="1" parent="NqdS10v-dnyxQDhLEZVA-262" source="NqdS10v-dnyxQDhLEZVA-23" target="NqdS10v-dnyxQDhLEZVA-18">
          <mxGeometry relative="1" as="geometry" />
        </mxCell>
        <mxCell id="NqdS10v-dnyxQDhLEZVA-23" value="" style="rounded=0;whiteSpace=wrap;html=1;rotation=0;" vertex="1" parent="NqdS10v-dnyxQDhLEZVA-262">
          <mxGeometry x="45.12244897959184" y="47.80487804878049" width="17.06122448979592" height="7.317073170731707" as="geometry" />
        </mxCell>
        <mxCell id="NqdS10v-dnyxQDhLEZVA-25" value="" style="rounded=0;whiteSpace=wrap;html=1;rotation=-60;flipV=0;flipH=1;" vertex="1" parent="NqdS10v-dnyxQDhLEZVA-262">
          <mxGeometry x="62.183673469387756" y="81.95121951219512" width="17.06122448979592" height="7.317073170731707" as="geometry" />
        </mxCell>
        <mxCell id="NqdS10v-dnyxQDhLEZVA-17" style="edgeStyle=orthogonalEdgeStyle;rounded=0;orthogonalLoop=1;jettySize=auto;html=1;exitX=1;exitY=0.75;exitDx=0;exitDy=0;entryX=1;entryY=0.25;entryDx=0;entryDy=0;endArrow=none;endFill=0;" edge="1" parent="NqdS10v-dnyxQDhLEZVA-262" source="NqdS10v-dnyxQDhLEZVA-18" target="NqdS10v-dnyxQDhLEZVA-25">
          <mxGeometry relative="1" as="geometry" />
        </mxCell>
        <mxCell id="NqdS10v-dnyxQDhLEZVA-26" style="edgeStyle=orthogonalEdgeStyle;rounded=0;orthogonalLoop=1;jettySize=auto;html=1;exitX=0;exitY=0.25;exitDx=0;exitDy=0;entryX=0;entryY=0.75;entryDx=0;entryDy=0;endArrow=none;endFill=0;" edge="1" parent="NqdS10v-dnyxQDhLEZVA-262" source="NqdS10v-dnyxQDhLEZVA-29" target="NqdS10v-dnyxQDhLEZVA-16">
          <mxGeometry relative="1" as="geometry" />
        </mxCell>
        <mxCell id="NqdS10v-dnyxQDhLEZVA-29" value="" style="rounded=0;whiteSpace=wrap;html=1;rotation=60;flipV=0;flipH=1;" vertex="1" parent="NqdS10v-dnyxQDhLEZVA-262">
          <mxGeometry x="28.06122448979592" y="81.95121951219512" width="17.06122448979592" height="7.317073170731707" as="geometry" />
        </mxCell>
        <mxCell id="NqdS10v-dnyxQDhLEZVA-30" style="edgeStyle=orthogonalEdgeStyle;rounded=0;orthogonalLoop=1;jettySize=auto;html=1;exitX=1;exitY=0.25;exitDx=0;exitDy=0;entryX=0;entryY=0.25;entryDx=0;entryDy=0;endArrow=none;endFill=0;" edge="1" parent="NqdS10v-dnyxQDhLEZVA-262" source="NqdS10v-dnyxQDhLEZVA-34" target="NqdS10v-dnyxQDhLEZVA-25">
          <mxGeometry relative="1" as="geometry" />
        </mxCell>
        <mxCell id="NqdS10v-dnyxQDhLEZVA-31" style="edgeStyle=orthogonalEdgeStyle;rounded=0;orthogonalLoop=1;jettySize=auto;html=1;exitX=0;exitY=0.25;exitDx=0;exitDy=0;entryX=1;entryY=0.25;entryDx=0;entryDy=0;endArrow=none;endFill=0;" edge="1" parent="NqdS10v-dnyxQDhLEZVA-262" source="NqdS10v-dnyxQDhLEZVA-34" target="NqdS10v-dnyxQDhLEZVA-29">
          <mxGeometry relative="1" as="geometry" />
        </mxCell>
        <mxCell id="NqdS10v-dnyxQDhLEZVA-34" value="" style="rounded=0;whiteSpace=wrap;html=1;rotation=0;flipV=0;flipH=1;" vertex="1" parent="NqdS10v-dnyxQDhLEZVA-262">
          <mxGeometry x="45.12244897959184" y="94.14634146341463" width="17.06122448979592" height="7.317073170731707" as="geometry" />
        </mxCell>
        <mxCell id="NqdS10v-dnyxQDhLEZVA-36" value="" style="rounded=0;whiteSpace=wrap;html=1;rotation=60;" vertex="1" parent="NqdS10v-dnyxQDhLEZVA-262">
          <mxGeometry x="96.3061224489796" y="83.17073170731706" width="17.06122448979592" height="7.317073170731707" as="geometry" />
        </mxCell>
        <mxCell id="NqdS10v-dnyxQDhLEZVA-37" style="edgeStyle=orthogonalEdgeStyle;rounded=0;orthogonalLoop=1;jettySize=auto;html=1;exitX=1;exitY=0.75;exitDx=0;exitDy=0;entryX=0;entryY=0.75;entryDx=0;entryDy=0;endArrow=none;endFill=0;" edge="1" parent="NqdS10v-dnyxQDhLEZVA-262" source="NqdS10v-dnyxQDhLEZVA-41" target="NqdS10v-dnyxQDhLEZVA-36">
          <mxGeometry relative="1" as="geometry" />
        </mxCell>
        <mxCell id="NqdS10v-dnyxQDhLEZVA-38" style="edgeStyle=orthogonalEdgeStyle;rounded=0;orthogonalLoop=1;jettySize=auto;html=1;exitX=0;exitY=0.25;exitDx=0;exitDy=0;entryX=1;entryY=0.25;entryDx=0;entryDy=0;endArrow=none;endFill=0;" edge="1" parent="NqdS10v-dnyxQDhLEZVA-262" source="NqdS10v-dnyxQDhLEZVA-41" target="NqdS10v-dnyxQDhLEZVA-18">
          <mxGeometry relative="1" as="geometry" />
        </mxCell>
        <mxCell id="NqdS10v-dnyxQDhLEZVA-39" style="edgeStyle=orthogonalEdgeStyle;rounded=0;orthogonalLoop=1;jettySize=auto;html=1;exitX=0;exitY=0.75;exitDx=0;exitDy=0;entryX=1;entryY=0.75;entryDx=0;entryDy=0;endArrow=none;endFill=0;" edge="1" parent="NqdS10v-dnyxQDhLEZVA-262" source="NqdS10v-dnyxQDhLEZVA-41" target="NqdS10v-dnyxQDhLEZVA-25">
          <mxGeometry relative="1" as="geometry" />
        </mxCell>
        <mxCell id="NqdS10v-dnyxQDhLEZVA-41" value="" style="rounded=0;whiteSpace=wrap;html=1;rotation=0;" vertex="1" parent="NqdS10v-dnyxQDhLEZVA-262">
          <mxGeometry x="79.24489795918367" y="70.97560975609755" width="17.06122448979592" height="7.317073170731707" as="geometry" />
        </mxCell>
        <mxCell id="NqdS10v-dnyxQDhLEZVA-42" value="" style="rounded=0;whiteSpace=wrap;html=1;rotation=-60;flipV=0;flipH=1;" vertex="1" parent="NqdS10v-dnyxQDhLEZVA-262">
          <mxGeometry x="96.3061224489796" y="105.1219512195122" width="17.06122448979592" height="7.317073170731707" as="geometry" />
        </mxCell>
        <mxCell id="NqdS10v-dnyxQDhLEZVA-35" style="edgeStyle=orthogonalEdgeStyle;rounded=0;orthogonalLoop=1;jettySize=auto;html=1;exitX=1;exitY=0.75;exitDx=0;exitDy=0;entryX=1;entryY=0.25;entryDx=0;entryDy=0;endArrow=none;endFill=0;" edge="1" parent="NqdS10v-dnyxQDhLEZVA-262" source="NqdS10v-dnyxQDhLEZVA-36" target="NqdS10v-dnyxQDhLEZVA-42">
          <mxGeometry relative="1" as="geometry" />
        </mxCell>
        <mxCell id="NqdS10v-dnyxQDhLEZVA-44" value="" style="rounded=0;whiteSpace=wrap;html=1;rotation=60;flipV=0;flipH=1;" vertex="1" parent="NqdS10v-dnyxQDhLEZVA-262">
          <mxGeometry x="62.183673469387756" y="106.09756097560975" width="17.06122448979592" height="7.317073170731707" as="geometry" />
        </mxCell>
        <mxCell id="NqdS10v-dnyxQDhLEZVA-24" style="edgeStyle=orthogonalEdgeStyle;rounded=0;orthogonalLoop=1;jettySize=auto;html=1;exitX=0;exitY=0.75;exitDx=0;exitDy=0;entryX=0;entryY=0.25;entryDx=0;entryDy=0;endArrow=none;endFill=0;" edge="1" parent="NqdS10v-dnyxQDhLEZVA-262" source="NqdS10v-dnyxQDhLEZVA-25" target="NqdS10v-dnyxQDhLEZVA-44">
          <mxGeometry relative="1" as="geometry" />
        </mxCell>
        <mxCell id="NqdS10v-dnyxQDhLEZVA-32" style="edgeStyle=orthogonalEdgeStyle;rounded=0;orthogonalLoop=1;jettySize=auto;html=1;exitX=1;exitY=0.75;exitDx=0;exitDy=0;entryX=0;entryY=0.75;entryDx=0;entryDy=0;endArrow=none;endFill=0;" edge="1" parent="NqdS10v-dnyxQDhLEZVA-262" source="NqdS10v-dnyxQDhLEZVA-34" target="NqdS10v-dnyxQDhLEZVA-44">
          <mxGeometry relative="1" as="geometry" />
        </mxCell>
        <mxCell id="NqdS10v-dnyxQDhLEZVA-45" style="edgeStyle=orthogonalEdgeStyle;rounded=0;orthogonalLoop=1;jettySize=auto;html=1;exitX=1;exitY=0.25;exitDx=0;exitDy=0;entryX=0;entryY=0.25;entryDx=0;entryDy=0;endArrow=none;endFill=0;" edge="1" parent="NqdS10v-dnyxQDhLEZVA-262" source="NqdS10v-dnyxQDhLEZVA-49" target="NqdS10v-dnyxQDhLEZVA-42">
          <mxGeometry relative="1" as="geometry" />
        </mxCell>
        <mxCell id="NqdS10v-dnyxQDhLEZVA-46" style="edgeStyle=orthogonalEdgeStyle;rounded=0;orthogonalLoop=1;jettySize=auto;html=1;exitX=0;exitY=0.25;exitDx=0;exitDy=0;entryX=1;entryY=0.25;entryDx=0;entryDy=0;endArrow=none;endFill=0;" edge="1" parent="NqdS10v-dnyxQDhLEZVA-262" source="NqdS10v-dnyxQDhLEZVA-49" target="NqdS10v-dnyxQDhLEZVA-44">
          <mxGeometry relative="1" as="geometry" />
        </mxCell>
        <mxCell id="NqdS10v-dnyxQDhLEZVA-49" value="" style="rounded=0;whiteSpace=wrap;html=1;rotation=0;flipV=0;flipH=1;" vertex="1" parent="NqdS10v-dnyxQDhLEZVA-262">
          <mxGeometry x="79.24489795918367" y="117.31707317073172" width="17.06122448979592" height="7.317073170731707" as="geometry" />
        </mxCell>
        <mxCell id="NqdS10v-dnyxQDhLEZVA-51" value="" style="rounded=0;whiteSpace=wrap;html=1;rotation=-60;" vertex="1" parent="NqdS10v-dnyxQDhLEZVA-262">
          <mxGeometry x="28.06122448979592" y="106.09756097560975" width="17.06122448979592" height="7.317073170731707" as="geometry" />
        </mxCell>
        <mxCell id="NqdS10v-dnyxQDhLEZVA-27" style="edgeStyle=orthogonalEdgeStyle;rounded=0;orthogonalLoop=1;jettySize=auto;html=1;exitX=1;exitY=0.75;exitDx=0;exitDy=0;entryX=1;entryY=0.25;entryDx=0;entryDy=0;endArrow=none;endFill=0;" edge="1" parent="NqdS10v-dnyxQDhLEZVA-262" source="NqdS10v-dnyxQDhLEZVA-29" target="NqdS10v-dnyxQDhLEZVA-51">
          <mxGeometry relative="1" as="geometry" />
        </mxCell>
        <mxCell id="NqdS10v-dnyxQDhLEZVA-33" style="edgeStyle=orthogonalEdgeStyle;rounded=0;orthogonalLoop=1;jettySize=auto;html=1;exitX=0;exitY=0.75;exitDx=0;exitDy=0;entryX=1;entryY=0.75;entryDx=0;entryDy=0;endArrow=none;endFill=0;" edge="1" parent="NqdS10v-dnyxQDhLEZVA-262" source="NqdS10v-dnyxQDhLEZVA-34" target="NqdS10v-dnyxQDhLEZVA-51">
          <mxGeometry relative="1" as="geometry" />
        </mxCell>
        <mxCell id="NqdS10v-dnyxQDhLEZVA-52" value="" style="rounded=0;whiteSpace=wrap;html=1;rotation=-60;flipV=0;flipH=1;" vertex="1" parent="NqdS10v-dnyxQDhLEZVA-262">
          <mxGeometry x="62.183673469387756" y="128.0487804878049" width="17.06122448979592" height="7.317073170731707" as="geometry" />
        </mxCell>
        <mxCell id="NqdS10v-dnyxQDhLEZVA-43" style="edgeStyle=orthogonalEdgeStyle;rounded=0;orthogonalLoop=1;jettySize=auto;html=1;exitX=1;exitY=0.75;exitDx=0;exitDy=0;entryX=1;entryY=0.25;entryDx=0;entryDy=0;endArrow=none;endFill=0;" edge="1" parent="NqdS10v-dnyxQDhLEZVA-262" source="NqdS10v-dnyxQDhLEZVA-44" target="NqdS10v-dnyxQDhLEZVA-52">
          <mxGeometry relative="1" as="geometry" />
        </mxCell>
        <mxCell id="NqdS10v-dnyxQDhLEZVA-47" style="edgeStyle=orthogonalEdgeStyle;rounded=0;orthogonalLoop=1;jettySize=auto;html=1;exitX=0;exitY=0.75;exitDx=0;exitDy=0;entryX=1;entryY=0.75;entryDx=0;entryDy=0;endArrow=none;endFill=0;" edge="1" parent="NqdS10v-dnyxQDhLEZVA-262" source="NqdS10v-dnyxQDhLEZVA-49" target="NqdS10v-dnyxQDhLEZVA-52">
          <mxGeometry relative="1" as="geometry" />
        </mxCell>
        <mxCell id="NqdS10v-dnyxQDhLEZVA-53" style="edgeStyle=orthogonalEdgeStyle;rounded=0;orthogonalLoop=1;jettySize=auto;html=1;exitX=0;exitY=0.25;exitDx=0;exitDy=0;entryX=0;entryY=0.75;entryDx=0;entryDy=0;endArrow=none;endFill=0;" edge="1" parent="NqdS10v-dnyxQDhLEZVA-262" source="NqdS10v-dnyxQDhLEZVA-55" target="NqdS10v-dnyxQDhLEZVA-51">
          <mxGeometry relative="1" as="geometry" />
        </mxCell>
        <mxCell id="NqdS10v-dnyxQDhLEZVA-55" value="" style="rounded=0;whiteSpace=wrap;html=1;rotation=60;flipV=0;flipH=1;" vertex="1" parent="NqdS10v-dnyxQDhLEZVA-262">
          <mxGeometry x="28.06122448979592" y="128.0487804878049" width="17.06122448979592" height="7.317073170731707" as="geometry" />
        </mxCell>
        <mxCell id="NqdS10v-dnyxQDhLEZVA-56" style="edgeStyle=orthogonalEdgeStyle;rounded=0;orthogonalLoop=1;jettySize=auto;html=1;exitX=1;exitY=0.25;exitDx=0;exitDy=0;entryX=0;entryY=0.25;entryDx=0;entryDy=0;endArrow=none;endFill=0;" edge="1" parent="NqdS10v-dnyxQDhLEZVA-262" source="NqdS10v-dnyxQDhLEZVA-60" target="NqdS10v-dnyxQDhLEZVA-52">
          <mxGeometry relative="1" as="geometry" />
        </mxCell>
        <mxCell id="NqdS10v-dnyxQDhLEZVA-57" style="edgeStyle=orthogonalEdgeStyle;rounded=0;orthogonalLoop=1;jettySize=auto;html=1;exitX=0;exitY=0.25;exitDx=0;exitDy=0;entryX=1;entryY=0.25;entryDx=0;entryDy=0;endArrow=none;endFill=0;" edge="1" parent="NqdS10v-dnyxQDhLEZVA-262" source="NqdS10v-dnyxQDhLEZVA-60" target="NqdS10v-dnyxQDhLEZVA-55">
          <mxGeometry relative="1" as="geometry" />
        </mxCell>
        <mxCell id="NqdS10v-dnyxQDhLEZVA-60" value="" style="rounded=0;whiteSpace=wrap;html=1;rotation=0;flipV=0;flipH=1;" vertex="1" parent="NqdS10v-dnyxQDhLEZVA-262">
          <mxGeometry x="45.12244897959184" y="140.24390243902442" width="17.06122448979592" height="7.317073170731707" as="geometry" />
        </mxCell>
        <mxCell id="NqdS10v-dnyxQDhLEZVA-62" style="edgeStyle=orthogonalEdgeStyle;rounded=0;orthogonalLoop=1;jettySize=auto;html=1;exitX=0;exitY=0.25;exitDx=0;exitDy=0;entryX=0;entryY=0.75;entryDx=0;entryDy=0;endArrow=none;endFill=0;" edge="1" parent="NqdS10v-dnyxQDhLEZVA-262" source="NqdS10v-dnyxQDhLEZVA-63" target="NqdS10v-dnyxQDhLEZVA-42">
          <mxGeometry relative="1" as="geometry" />
        </mxCell>
        <mxCell id="NqdS10v-dnyxQDhLEZVA-63" value="" style="rounded=0;whiteSpace=wrap;html=1;rotation=60;" vertex="1" parent="NqdS10v-dnyxQDhLEZVA-262">
          <mxGeometry x="96.3061224489796" y="130.7317073170732" width="17.06122448979592" height="7.317073170731707" as="geometry" />
        </mxCell>
        <mxCell id="NqdS10v-dnyxQDhLEZVA-48" style="edgeStyle=orthogonalEdgeStyle;rounded=0;orthogonalLoop=1;jettySize=auto;html=1;exitX=1;exitY=0.75;exitDx=0;exitDy=0;entryX=0;entryY=0.75;entryDx=0;entryDy=0;endArrow=none;endFill=0;" edge="1" parent="NqdS10v-dnyxQDhLEZVA-262" source="NqdS10v-dnyxQDhLEZVA-49" target="NqdS10v-dnyxQDhLEZVA-63">
          <mxGeometry relative="1" as="geometry" />
        </mxCell>
        <mxCell id="NqdS10v-dnyxQDhLEZVA-64" value="" style="rounded=0;whiteSpace=wrap;html=1;rotation=-60;flipV=0;flipH=1;" vertex="1" parent="NqdS10v-dnyxQDhLEZVA-262">
          <mxGeometry x="96.3061224489796" y="152.68292682926833" width="17.06122448979592" height="7.317073170731707" as="geometry" />
        </mxCell>
        <mxCell id="NqdS10v-dnyxQDhLEZVA-61" style="edgeStyle=orthogonalEdgeStyle;rounded=0;orthogonalLoop=1;jettySize=auto;html=1;exitX=1;exitY=0.75;exitDx=0;exitDy=0;entryX=1;entryY=0.25;entryDx=0;entryDy=0;endArrow=none;endFill=0;" edge="1" parent="NqdS10v-dnyxQDhLEZVA-262" source="NqdS10v-dnyxQDhLEZVA-63" target="NqdS10v-dnyxQDhLEZVA-64">
          <mxGeometry relative="1" as="geometry" />
        </mxCell>
        <mxCell id="NqdS10v-dnyxQDhLEZVA-65" style="edgeStyle=orthogonalEdgeStyle;rounded=0;orthogonalLoop=1;jettySize=auto;html=1;exitX=0;exitY=0.25;exitDx=0;exitDy=0;entryX=0;entryY=0.75;entryDx=0;entryDy=0;endArrow=none;endFill=0;" edge="1" parent="NqdS10v-dnyxQDhLEZVA-262" source="NqdS10v-dnyxQDhLEZVA-66" target="NqdS10v-dnyxQDhLEZVA-52">
          <mxGeometry relative="1" as="geometry" />
        </mxCell>
        <mxCell id="NqdS10v-dnyxQDhLEZVA-66" value="" style="rounded=0;whiteSpace=wrap;html=1;rotation=60;flipV=0;flipH=1;" vertex="1" parent="NqdS10v-dnyxQDhLEZVA-262">
          <mxGeometry x="62.183673469387756" y="152.68292682926833" width="17.06122448979592" height="7.317073170731707" as="geometry" />
        </mxCell>
        <mxCell id="NqdS10v-dnyxQDhLEZVA-58" style="edgeStyle=orthogonalEdgeStyle;rounded=0;orthogonalLoop=1;jettySize=auto;html=1;exitX=1;exitY=0.75;exitDx=0;exitDy=0;entryX=0;entryY=0.75;entryDx=0;entryDy=0;endArrow=none;endFill=0;" edge="1" parent="NqdS10v-dnyxQDhLEZVA-262" source="NqdS10v-dnyxQDhLEZVA-60" target="NqdS10v-dnyxQDhLEZVA-66">
          <mxGeometry relative="1" as="geometry" />
        </mxCell>
        <mxCell id="NqdS10v-dnyxQDhLEZVA-67" style="edgeStyle=orthogonalEdgeStyle;rounded=0;orthogonalLoop=1;jettySize=auto;html=1;exitX=1;exitY=0.25;exitDx=0;exitDy=0;entryX=0;entryY=0.25;entryDx=0;entryDy=0;endArrow=none;endFill=0;" edge="1" parent="NqdS10v-dnyxQDhLEZVA-262" source="NqdS10v-dnyxQDhLEZVA-69" target="NqdS10v-dnyxQDhLEZVA-64">
          <mxGeometry relative="1" as="geometry" />
        </mxCell>
        <mxCell id="NqdS10v-dnyxQDhLEZVA-68" style="edgeStyle=orthogonalEdgeStyle;rounded=0;orthogonalLoop=1;jettySize=auto;html=1;exitX=0;exitY=0.25;exitDx=0;exitDy=0;entryX=1;entryY=0.25;entryDx=0;entryDy=0;endArrow=none;endFill=0;" edge="1" parent="NqdS10v-dnyxQDhLEZVA-262" source="NqdS10v-dnyxQDhLEZVA-69" target="NqdS10v-dnyxQDhLEZVA-66">
          <mxGeometry relative="1" as="geometry" />
        </mxCell>
        <mxCell id="NqdS10v-dnyxQDhLEZVA-69" value="" style="rounded=0;whiteSpace=wrap;html=1;rotation=0;flipV=0;flipH=1;" vertex="1" parent="NqdS10v-dnyxQDhLEZVA-262">
          <mxGeometry x="79.24489795918367" y="164.87804878048786" width="17.06122448979592" height="7.317073170731707" as="geometry" />
        </mxCell>
        <mxCell id="NqdS10v-dnyxQDhLEZVA-70" style="edgeStyle=orthogonalEdgeStyle;rounded=0;orthogonalLoop=1;jettySize=auto;html=1;exitX=0;exitY=0.75;exitDx=0;exitDy=0;entryX=0;entryY=0.25;entryDx=0;entryDy=0;endArrow=none;endFill=0;" edge="1" parent="NqdS10v-dnyxQDhLEZVA-262" source="NqdS10v-dnyxQDhLEZVA-71" target="NqdS10v-dnyxQDhLEZVA-18">
          <mxGeometry relative="1" as="geometry" />
        </mxCell>
        <mxCell id="NqdS10v-dnyxQDhLEZVA-71" value="" style="rounded=0;whiteSpace=wrap;html=1;rotation=-60;" vertex="1" parent="NqdS10v-dnyxQDhLEZVA-262">
          <mxGeometry x="62.183673469387756" y="36.829268292682926" width="17.06122448979592" height="7.317073170731707" as="geometry" />
        </mxCell>
        <mxCell id="NqdS10v-dnyxQDhLEZVA-21" style="edgeStyle=orthogonalEdgeStyle;rounded=0;orthogonalLoop=1;jettySize=auto;html=1;exitX=1;exitY=0.25;exitDx=0;exitDy=0;entryX=0;entryY=0.25;entryDx=0;entryDy=0;endArrow=none;endFill=0;" edge="1" parent="NqdS10v-dnyxQDhLEZVA-262" source="NqdS10v-dnyxQDhLEZVA-23" target="NqdS10v-dnyxQDhLEZVA-71">
          <mxGeometry relative="1" as="geometry" />
        </mxCell>
        <mxCell id="NqdS10v-dnyxQDhLEZVA-73" value="" style="rounded=0;whiteSpace=wrap;html=1;rotation=60;" vertex="1" parent="NqdS10v-dnyxQDhLEZVA-262">
          <mxGeometry x="96.3061224489796" y="36.829268292682926" width="17.06122448979592" height="7.317073170731707" as="geometry" />
        </mxCell>
        <mxCell id="NqdS10v-dnyxQDhLEZVA-74" style="edgeStyle=orthogonalEdgeStyle;rounded=0;orthogonalLoop=1;jettySize=auto;html=1;exitX=0;exitY=0.75;exitDx=0;exitDy=0;entryX=1;entryY=0.75;entryDx=0;entryDy=0;endArrow=none;endFill=0;" edge="1" parent="NqdS10v-dnyxQDhLEZVA-262" source="NqdS10v-dnyxQDhLEZVA-76" target="NqdS10v-dnyxQDhLEZVA-71">
          <mxGeometry relative="1" as="geometry" />
        </mxCell>
        <mxCell id="NqdS10v-dnyxQDhLEZVA-75" style="edgeStyle=orthogonalEdgeStyle;rounded=0;orthogonalLoop=1;jettySize=auto;html=1;exitX=1;exitY=0.75;exitDx=0;exitDy=0;entryX=0;entryY=0.75;entryDx=0;entryDy=0;endArrow=none;endFill=0;" edge="1" parent="NqdS10v-dnyxQDhLEZVA-262" source="NqdS10v-dnyxQDhLEZVA-76" target="NqdS10v-dnyxQDhLEZVA-73">
          <mxGeometry relative="1" as="geometry" />
        </mxCell>
        <mxCell id="NqdS10v-dnyxQDhLEZVA-76" value="" style="rounded=0;whiteSpace=wrap;html=1;rotation=0;" vertex="1" parent="NqdS10v-dnyxQDhLEZVA-262">
          <mxGeometry x="79.24489795918367" y="24.63414634146341" width="17.06122448979592" height="7.317073170731707" as="geometry" />
        </mxCell>
        <mxCell id="NqdS10v-dnyxQDhLEZVA-77" style="edgeStyle=orthogonalEdgeStyle;rounded=0;orthogonalLoop=1;jettySize=auto;html=1;exitX=0;exitY=0.75;exitDx=0;exitDy=0;entryX=0;entryY=0.25;entryDx=0;entryDy=0;endArrow=none;endFill=0;" edge="1" parent="NqdS10v-dnyxQDhLEZVA-262" source="NqdS10v-dnyxQDhLEZVA-78" target="NqdS10v-dnyxQDhLEZVA-36">
          <mxGeometry relative="1" as="geometry" />
        </mxCell>
        <mxCell id="NqdS10v-dnyxQDhLEZVA-78" value="" style="rounded=0;whiteSpace=wrap;html=1;rotation=-60;flipV=0;flipH=1;" vertex="1" parent="NqdS10v-dnyxQDhLEZVA-262">
          <mxGeometry x="96.3061224489796" y="58.78048780487805" width="17.06122448979592" height="7.317073170731707" as="geometry" />
        </mxCell>
        <mxCell id="NqdS10v-dnyxQDhLEZVA-40" style="edgeStyle=orthogonalEdgeStyle;rounded=0;orthogonalLoop=1;jettySize=auto;html=1;exitX=1;exitY=0.25;exitDx=0;exitDy=0;entryX=0;entryY=0.25;entryDx=0;entryDy=0;endArrow=none;endFill=0;" edge="1" parent="NqdS10v-dnyxQDhLEZVA-262" source="NqdS10v-dnyxQDhLEZVA-41" target="NqdS10v-dnyxQDhLEZVA-78">
          <mxGeometry relative="1" as="geometry" />
        </mxCell>
        <mxCell id="NqdS10v-dnyxQDhLEZVA-72" style="edgeStyle=orthogonalEdgeStyle;rounded=0;orthogonalLoop=1;jettySize=auto;html=1;exitX=1;exitY=0.75;exitDx=0;exitDy=0;entryX=1;entryY=0.25;entryDx=0;entryDy=0;endArrow=none;endFill=0;" edge="1" parent="NqdS10v-dnyxQDhLEZVA-262" source="NqdS10v-dnyxQDhLEZVA-73" target="NqdS10v-dnyxQDhLEZVA-78">
          <mxGeometry relative="1" as="geometry" />
        </mxCell>
        <mxCell id="NqdS10v-dnyxQDhLEZVA-79" style="edgeStyle=orthogonalEdgeStyle;rounded=0;orthogonalLoop=1;jettySize=auto;html=1;exitX=0;exitY=0.75;exitDx=0;exitDy=0;entryX=1;entryY=0.75;entryDx=0;entryDy=0;endArrow=none;endFill=0;" edge="1" parent="NqdS10v-dnyxQDhLEZVA-262" source="NqdS10v-dnyxQDhLEZVA-82" target="NqdS10v-dnyxQDhLEZVA-78">
          <mxGeometry relative="1" as="geometry" />
        </mxCell>
        <mxCell id="NqdS10v-dnyxQDhLEZVA-80" style="edgeStyle=orthogonalEdgeStyle;rounded=0;orthogonalLoop=1;jettySize=auto;html=1;exitX=0;exitY=0.25;exitDx=0;exitDy=0;entryX=1;entryY=0.25;entryDx=0;entryDy=0;endArrow=none;endFill=0;" edge="1" parent="NqdS10v-dnyxQDhLEZVA-262" source="NqdS10v-dnyxQDhLEZVA-82" target="NqdS10v-dnyxQDhLEZVA-73">
          <mxGeometry relative="1" as="geometry" />
        </mxCell>
        <mxCell id="NqdS10v-dnyxQDhLEZVA-82" value="" style="rounded=0;whiteSpace=wrap;html=1;rotation=0;" vertex="1" parent="NqdS10v-dnyxQDhLEZVA-262">
          <mxGeometry x="113.36734693877551" y="47.80487804878049" width="17.06122448979592" height="7.317073170731707" as="geometry" />
        </mxCell>
        <mxCell id="NqdS10v-dnyxQDhLEZVA-83" style="edgeStyle=orthogonalEdgeStyle;rounded=0;orthogonalLoop=1;jettySize=auto;html=1;exitX=0;exitY=0.25;exitDx=0;exitDy=0;entryX=1;entryY=0.25;entryDx=0;entryDy=0;endArrow=none;endFill=0;" edge="1" parent="NqdS10v-dnyxQDhLEZVA-262" source="NqdS10v-dnyxQDhLEZVA-87" target="NqdS10v-dnyxQDhLEZVA-36">
          <mxGeometry relative="1" as="geometry" />
        </mxCell>
        <mxCell id="NqdS10v-dnyxQDhLEZVA-84" style="edgeStyle=orthogonalEdgeStyle;rounded=0;orthogonalLoop=1;jettySize=auto;html=1;exitX=0;exitY=0.75;exitDx=0;exitDy=0;entryX=1;entryY=0.75;entryDx=0;entryDy=0;endArrow=none;endFill=0;" edge="1" parent="NqdS10v-dnyxQDhLEZVA-262" source="NqdS10v-dnyxQDhLEZVA-87" target="NqdS10v-dnyxQDhLEZVA-42">
          <mxGeometry relative="1" as="geometry" />
        </mxCell>
        <mxCell id="NqdS10v-dnyxQDhLEZVA-87" value="" style="rounded=0;whiteSpace=wrap;html=1;rotation=0;" vertex="1" parent="NqdS10v-dnyxQDhLEZVA-262">
          <mxGeometry x="113.36734693877551" y="94.14634146341463" width="17.06122448979592" height="7.317073170731707" as="geometry" />
        </mxCell>
        <mxCell id="NqdS10v-dnyxQDhLEZVA-89" value="" style="rounded=0;whiteSpace=wrap;html=1;rotation=60;" vertex="1" parent="NqdS10v-dnyxQDhLEZVA-262">
          <mxGeometry x="130.42857142857142" y="106.09756097560975" width="17.06122448979592" height="7.317073170731707" as="geometry" />
        </mxCell>
        <mxCell id="NqdS10v-dnyxQDhLEZVA-86" style="edgeStyle=orthogonalEdgeStyle;rounded=0;orthogonalLoop=1;jettySize=auto;html=1;exitX=1;exitY=0.75;exitDx=0;exitDy=0;entryX=0;entryY=0.75;entryDx=0;entryDy=0;endArrow=none;endFill=0;" edge="1" parent="NqdS10v-dnyxQDhLEZVA-262" source="NqdS10v-dnyxQDhLEZVA-87" target="NqdS10v-dnyxQDhLEZVA-89">
          <mxGeometry relative="1" as="geometry" />
        </mxCell>
        <mxCell id="NqdS10v-dnyxQDhLEZVA-90" value="" style="rounded=0;whiteSpace=wrap;html=1;rotation=-60;flipV=0;flipH=1;" vertex="1" parent="NqdS10v-dnyxQDhLEZVA-262">
          <mxGeometry x="130.42857142857142" y="128.0487804878049" width="17.06122448979592" height="7.317073170731707" as="geometry" />
        </mxCell>
        <mxCell id="NqdS10v-dnyxQDhLEZVA-88" style="edgeStyle=orthogonalEdgeStyle;rounded=0;orthogonalLoop=1;jettySize=auto;html=1;exitX=1;exitY=0.75;exitDx=0;exitDy=0;entryX=1;entryY=0.25;entryDx=0;entryDy=0;endArrow=none;endFill=0;" edge="1" parent="NqdS10v-dnyxQDhLEZVA-262" source="NqdS10v-dnyxQDhLEZVA-89" target="NqdS10v-dnyxQDhLEZVA-90">
          <mxGeometry relative="1" as="geometry" />
        </mxCell>
        <mxCell id="NqdS10v-dnyxQDhLEZVA-91" style="edgeStyle=orthogonalEdgeStyle;rounded=0;orthogonalLoop=1;jettySize=auto;html=1;exitX=1;exitY=0.25;exitDx=0;exitDy=0;entryX=0;entryY=0.25;entryDx=0;entryDy=0;endArrow=none;endFill=0;" edge="1" parent="NqdS10v-dnyxQDhLEZVA-262" source="NqdS10v-dnyxQDhLEZVA-95" target="NqdS10v-dnyxQDhLEZVA-90">
          <mxGeometry relative="1" as="geometry" />
        </mxCell>
        <mxCell id="NqdS10v-dnyxQDhLEZVA-92" style="edgeStyle=orthogonalEdgeStyle;rounded=0;orthogonalLoop=1;jettySize=auto;html=1;exitX=0;exitY=0.25;exitDx=0;exitDy=0;entryX=1;entryY=0.25;entryDx=0;entryDy=0;endArrow=none;endFill=0;" edge="1" parent="NqdS10v-dnyxQDhLEZVA-262" source="NqdS10v-dnyxQDhLEZVA-95" target="NqdS10v-dnyxQDhLEZVA-63">
          <mxGeometry relative="1" as="geometry" />
        </mxCell>
        <mxCell id="NqdS10v-dnyxQDhLEZVA-93" style="edgeStyle=orthogonalEdgeStyle;rounded=0;orthogonalLoop=1;jettySize=auto;html=1;exitX=0;exitY=0.75;exitDx=0;exitDy=0;entryX=1;entryY=0.75;entryDx=0;entryDy=0;endArrow=none;endFill=0;" edge="1" parent="NqdS10v-dnyxQDhLEZVA-262" source="NqdS10v-dnyxQDhLEZVA-95" target="NqdS10v-dnyxQDhLEZVA-64">
          <mxGeometry relative="1" as="geometry" />
        </mxCell>
        <mxCell id="NqdS10v-dnyxQDhLEZVA-95" value="" style="rounded=0;whiteSpace=wrap;html=1;rotation=0;flipV=0;flipH=1;" vertex="1" parent="NqdS10v-dnyxQDhLEZVA-262">
          <mxGeometry x="113.36734693877551" y="141.95121951219514" width="17.06122448979592" height="7.317073170731707" as="geometry" />
        </mxCell>
        <mxCell id="NqdS10v-dnyxQDhLEZVA-97" value="" style="rounded=0;whiteSpace=wrap;html=1;rotation=60;" vertex="1" parent="NqdS10v-dnyxQDhLEZVA-262">
          <mxGeometry x="130.42857142857142" y="58.78048780487805" width="17.06122448979592" height="7.317073170731707" as="geometry" />
        </mxCell>
        <mxCell id="NqdS10v-dnyxQDhLEZVA-81" style="edgeStyle=orthogonalEdgeStyle;rounded=0;orthogonalLoop=1;jettySize=auto;html=1;exitX=1;exitY=0.75;exitDx=0;exitDy=0;entryX=0;entryY=0.75;entryDx=0;entryDy=0;endArrow=none;endFill=0;" edge="1" parent="NqdS10v-dnyxQDhLEZVA-262" source="NqdS10v-dnyxQDhLEZVA-82" target="NqdS10v-dnyxQDhLEZVA-97">
          <mxGeometry relative="1" as="geometry" />
        </mxCell>
        <mxCell id="NqdS10v-dnyxQDhLEZVA-98" style="edgeStyle=orthogonalEdgeStyle;rounded=0;orthogonalLoop=1;jettySize=auto;html=1;exitX=0;exitY=0.75;exitDx=0;exitDy=0;entryX=0;entryY=0.25;entryDx=0;entryDy=0;endArrow=none;endFill=0;" edge="1" parent="NqdS10v-dnyxQDhLEZVA-262" source="NqdS10v-dnyxQDhLEZVA-99" target="NqdS10v-dnyxQDhLEZVA-89">
          <mxGeometry relative="1" as="geometry" />
        </mxCell>
        <mxCell id="NqdS10v-dnyxQDhLEZVA-99" value="" style="rounded=0;whiteSpace=wrap;html=1;rotation=-60;flipV=0;flipH=1;" vertex="1" parent="NqdS10v-dnyxQDhLEZVA-262">
          <mxGeometry x="130.42857142857142" y="81.95121951219512" width="17.06122448979592" height="7.317073170731707" as="geometry" />
        </mxCell>
        <mxCell id="NqdS10v-dnyxQDhLEZVA-85" style="edgeStyle=orthogonalEdgeStyle;rounded=0;orthogonalLoop=1;jettySize=auto;html=1;exitX=1;exitY=0.25;exitDx=0;exitDy=0;entryX=0;entryY=0.25;entryDx=0;entryDy=0;endArrow=none;endFill=0;" edge="1" parent="NqdS10v-dnyxQDhLEZVA-262" source="NqdS10v-dnyxQDhLEZVA-87" target="NqdS10v-dnyxQDhLEZVA-99">
          <mxGeometry relative="1" as="geometry" />
        </mxCell>
        <mxCell id="NqdS10v-dnyxQDhLEZVA-96" style="edgeStyle=orthogonalEdgeStyle;rounded=0;orthogonalLoop=1;jettySize=auto;html=1;exitX=1;exitY=0.75;exitDx=0;exitDy=0;entryX=1;entryY=0.25;entryDx=0;entryDy=0;endArrow=none;endFill=0;" edge="1" parent="NqdS10v-dnyxQDhLEZVA-262" source="NqdS10v-dnyxQDhLEZVA-97" target="NqdS10v-dnyxQDhLEZVA-99">
          <mxGeometry relative="1" as="geometry" />
        </mxCell>
        <mxCell id="NqdS10v-dnyxQDhLEZVA-101" value="" style="triangle;whiteSpace=wrap;html=1;fillColor=#f5f5f5;fontColor=#333333;strokeColor=#666666;rotation=90;" vertex="1" parent="NqdS10v-dnyxQDhLEZVA-262">
          <mxGeometry x="65.88775510204081" y="2.6829268292682924" width="13.46938775510204" height="9.268292682926829" as="geometry" />
        </mxCell>
        <mxCell id="NqdS10v-dnyxQDhLEZVA-102" value="" style="rounded=0;whiteSpace=wrap;html=1;rotation=0;" vertex="1" parent="NqdS10v-dnyxQDhLEZVA-262">
          <mxGeometry x="113.36734693877551" y="47.80487804878049" width="17.06122448979592" height="7.317073170731707" as="geometry" />
        </mxCell>
        <mxCell id="NqdS10v-dnyxQDhLEZVA-103" value="" style="rounded=0;whiteSpace=wrap;html=1;rotation=60;" vertex="1" parent="NqdS10v-dnyxQDhLEZVA-262">
          <mxGeometry x="130.42857142857142" y="58.78048780487805" width="17.06122448979592" height="7.317073170731707" as="geometry" />
        </mxCell>
        <mxCell id="NqdS10v-dnyxQDhLEZVA-104" value="" style="rounded=0;whiteSpace=wrap;html=1;rotation=-60;flipV=0;flipH=1;" vertex="1" parent="NqdS10v-dnyxQDhLEZVA-262">
          <mxGeometry x="130.42857142857142" y="81.95121951219512" width="17.06122448979592" height="7.317073170731707" as="geometry" />
        </mxCell>
        <mxCell id="NqdS10v-dnyxQDhLEZVA-106" value="" style="rounded=0;whiteSpace=wrap;html=1;rotation=0;" vertex="1" parent="NqdS10v-dnyxQDhLEZVA-262">
          <mxGeometry x="113.36734693877551" y="47.80487804878049" width="17.06122448979592" height="7.317073170731707" as="geometry" />
        </mxCell>
        <mxCell id="NqdS10v-dnyxQDhLEZVA-107" value="" style="rounded=0;whiteSpace=wrap;html=1;rotation=60;" vertex="1" parent="NqdS10v-dnyxQDhLEZVA-262">
          <mxGeometry x="130.42857142857142" y="58.78048780487805" width="17.06122448979592" height="7.317073170731707" as="geometry" />
        </mxCell>
        <mxCell id="NqdS10v-dnyxQDhLEZVA-108" value="" style="rounded=0;whiteSpace=wrap;html=1;rotation=-60;flipV=0;flipH=1;" vertex="1" parent="NqdS10v-dnyxQDhLEZVA-262">
          <mxGeometry x="130.42857142857142" y="81.95121951219512" width="17.06122448979592" height="7.317073170731707" as="geometry" />
        </mxCell>
        <mxCell id="NqdS10v-dnyxQDhLEZVA-109" value="" style="rounded=0;whiteSpace=wrap;html=1;rotation=0;" vertex="1" parent="NqdS10v-dnyxQDhLEZVA-262">
          <mxGeometry x="113.36734693877551" y="94.14634146341463" width="17.06122448979592" height="7.317073170731707" as="geometry" />
        </mxCell>
        <mxCell id="NqdS10v-dnyxQDhLEZVA-110" value="" style="rounded=0;whiteSpace=wrap;html=1;rotation=-60;" vertex="1" parent="NqdS10v-dnyxQDhLEZVA-262">
          <mxGeometry x="165.6734693877551" y="60.204878048780486" width="17.06122448979592" height="7.317073170731707" as="geometry" />
        </mxCell>
        <mxCell id="NqdS10v-dnyxQDhLEZVA-112" value="" style="rounded=0;whiteSpace=wrap;html=1;rotation=60;" vertex="1" parent="NqdS10v-dnyxQDhLEZVA-262">
          <mxGeometry x="199.79591836734693" y="60.204878048780486" width="17.06122448979592" height="7.317073170731707" as="geometry" />
        </mxCell>
        <mxCell id="NqdS10v-dnyxQDhLEZVA-113" style="edgeStyle=orthogonalEdgeStyle;rounded=0;orthogonalLoop=1;jettySize=auto;html=1;exitX=0;exitY=0.75;exitDx=0;exitDy=0;entryX=1;entryY=0.75;entryDx=0;entryDy=0;endArrow=none;endFill=0;" edge="1" parent="NqdS10v-dnyxQDhLEZVA-262" source="NqdS10v-dnyxQDhLEZVA-117" target="NqdS10v-dnyxQDhLEZVA-110">
          <mxGeometry relative="1" as="geometry" />
        </mxCell>
        <mxCell id="NqdS10v-dnyxQDhLEZVA-114" style="edgeStyle=orthogonalEdgeStyle;rounded=0;orthogonalLoop=1;jettySize=auto;html=1;exitX=1;exitY=0.75;exitDx=0;exitDy=0;entryX=0;entryY=0.75;entryDx=0;entryDy=0;endArrow=none;endFill=0;" edge="1" parent="NqdS10v-dnyxQDhLEZVA-262" source="NqdS10v-dnyxQDhLEZVA-117" target="NqdS10v-dnyxQDhLEZVA-112">
          <mxGeometry relative="1" as="geometry" />
        </mxCell>
        <mxCell id="NqdS10v-dnyxQDhLEZVA-115" style="edgeStyle=orthogonalEdgeStyle;rounded=0;orthogonalLoop=1;jettySize=auto;html=1;exitX=1;exitY=0.25;exitDx=0;exitDy=0;entryX=0;entryY=0.25;entryDx=0;entryDy=0;endArrow=none;endFill=0;" edge="1" parent="NqdS10v-dnyxQDhLEZVA-262" source="NqdS10v-dnyxQDhLEZVA-117">
          <mxGeometry relative="1" as="geometry">
            <mxPoint x="202.60312049362813" y="47.804625693611925" as="targetPoint" />
          </mxGeometry>
        </mxCell>
        <mxCell id="NqdS10v-dnyxQDhLEZVA-117" value="" style="rounded=0;whiteSpace=wrap;html=1;rotation=0;" vertex="1" parent="NqdS10v-dnyxQDhLEZVA-262">
          <mxGeometry x="182.73469387755102" y="48.009756097560974" width="17.06122448979592" height="7.317073170731707" as="geometry" />
        </mxCell>
        <mxCell id="NqdS10v-dnyxQDhLEZVA-119" value="" style="rounded=0;whiteSpace=wrap;html=1;rotation=-60;flipV=0;flipH=1;" vertex="1" parent="NqdS10v-dnyxQDhLEZVA-262">
          <mxGeometry x="199.79591836734693" y="82.15609756097562" width="17.06122448979592" height="7.317073170731707" as="geometry" />
        </mxCell>
        <mxCell id="NqdS10v-dnyxQDhLEZVA-111" style="edgeStyle=orthogonalEdgeStyle;rounded=0;orthogonalLoop=1;jettySize=auto;html=1;exitX=1;exitY=0.75;exitDx=0;exitDy=0;entryX=1;entryY=0.25;entryDx=0;entryDy=0;endArrow=none;endFill=0;" edge="1" parent="NqdS10v-dnyxQDhLEZVA-262" source="NqdS10v-dnyxQDhLEZVA-112" target="NqdS10v-dnyxQDhLEZVA-119">
          <mxGeometry relative="1" as="geometry" />
        </mxCell>
        <mxCell id="NqdS10v-dnyxQDhLEZVA-120" style="edgeStyle=orthogonalEdgeStyle;rounded=0;orthogonalLoop=1;jettySize=auto;html=1;exitX=0;exitY=0.25;exitDx=0;exitDy=0;entryX=0;entryY=0.75;entryDx=0;entryDy=0;endArrow=none;endFill=0;" edge="1" parent="NqdS10v-dnyxQDhLEZVA-262" source="NqdS10v-dnyxQDhLEZVA-122" target="NqdS10v-dnyxQDhLEZVA-110">
          <mxGeometry relative="1" as="geometry" />
        </mxCell>
        <mxCell id="NqdS10v-dnyxQDhLEZVA-122" value="" style="rounded=0;whiteSpace=wrap;html=1;rotation=60;flipV=0;flipH=1;" vertex="1" parent="NqdS10v-dnyxQDhLEZVA-262">
          <mxGeometry x="165.6734693877551" y="82.15609756097562" width="17.06122448979592" height="7.317073170731707" as="geometry" />
        </mxCell>
        <mxCell id="NqdS10v-dnyxQDhLEZVA-123" style="edgeStyle=orthogonalEdgeStyle;rounded=0;orthogonalLoop=1;jettySize=auto;html=1;exitX=1;exitY=0.25;exitDx=0;exitDy=0;entryX=0;entryY=0.25;entryDx=0;entryDy=0;endArrow=none;endFill=0;" edge="1" parent="NqdS10v-dnyxQDhLEZVA-262" source="NqdS10v-dnyxQDhLEZVA-127" target="NqdS10v-dnyxQDhLEZVA-119">
          <mxGeometry relative="1" as="geometry" />
        </mxCell>
        <mxCell id="NqdS10v-dnyxQDhLEZVA-124" style="edgeStyle=orthogonalEdgeStyle;rounded=0;orthogonalLoop=1;jettySize=auto;html=1;exitX=0;exitY=0.25;exitDx=0;exitDy=0;entryX=1;entryY=0.25;entryDx=0;entryDy=0;endArrow=none;endFill=0;" edge="1" parent="NqdS10v-dnyxQDhLEZVA-262" source="NqdS10v-dnyxQDhLEZVA-127" target="NqdS10v-dnyxQDhLEZVA-122">
          <mxGeometry relative="1" as="geometry" />
        </mxCell>
        <mxCell id="NqdS10v-dnyxQDhLEZVA-127" value="" style="rounded=0;whiteSpace=wrap;html=1;rotation=0;flipV=0;flipH=1;" vertex="1" parent="NqdS10v-dnyxQDhLEZVA-262">
          <mxGeometry x="182.73469387755102" y="94.35121951219513" width="17.06122448979592" height="7.317073170731707" as="geometry" />
        </mxCell>
        <mxCell id="NqdS10v-dnyxQDhLEZVA-129" value="" style="rounded=0;whiteSpace=wrap;html=1;rotation=60;" vertex="1" parent="NqdS10v-dnyxQDhLEZVA-262">
          <mxGeometry x="233.91836734693877" y="83.37560975609756" width="17.06122448979592" height="7.317073170731707" as="geometry" />
        </mxCell>
        <mxCell id="NqdS10v-dnyxQDhLEZVA-130" style="edgeStyle=orthogonalEdgeStyle;rounded=0;orthogonalLoop=1;jettySize=auto;html=1;exitX=1;exitY=0.75;exitDx=0;exitDy=0;entryX=0;entryY=0.75;entryDx=0;entryDy=0;endArrow=none;endFill=0;" edge="1" parent="NqdS10v-dnyxQDhLEZVA-262" source="NqdS10v-dnyxQDhLEZVA-134" target="NqdS10v-dnyxQDhLEZVA-129">
          <mxGeometry relative="1" as="geometry" />
        </mxCell>
        <mxCell id="NqdS10v-dnyxQDhLEZVA-131" style="edgeStyle=orthogonalEdgeStyle;rounded=0;orthogonalLoop=1;jettySize=auto;html=1;exitX=0;exitY=0.25;exitDx=0;exitDy=0;entryX=1;entryY=0.25;entryDx=0;entryDy=0;endArrow=none;endFill=0;" edge="1" parent="NqdS10v-dnyxQDhLEZVA-262" source="NqdS10v-dnyxQDhLEZVA-134" target="NqdS10v-dnyxQDhLEZVA-112">
          <mxGeometry relative="1" as="geometry" />
        </mxCell>
        <mxCell id="NqdS10v-dnyxQDhLEZVA-132" style="edgeStyle=orthogonalEdgeStyle;rounded=0;orthogonalLoop=1;jettySize=auto;html=1;exitX=0;exitY=0.75;exitDx=0;exitDy=0;entryX=1;entryY=0.75;entryDx=0;entryDy=0;endArrow=none;endFill=0;" edge="1" parent="NqdS10v-dnyxQDhLEZVA-262" source="NqdS10v-dnyxQDhLEZVA-134" target="NqdS10v-dnyxQDhLEZVA-119">
          <mxGeometry relative="1" as="geometry" />
        </mxCell>
        <mxCell id="NqdS10v-dnyxQDhLEZVA-134" value="" style="rounded=0;whiteSpace=wrap;html=1;rotation=0;" vertex="1" parent="NqdS10v-dnyxQDhLEZVA-262">
          <mxGeometry x="216.85714285714286" y="71.18048780487806" width="17.06122448979592" height="7.317073170731707" as="geometry" />
        </mxCell>
        <mxCell id="NqdS10v-dnyxQDhLEZVA-135" value="" style="rounded=0;whiteSpace=wrap;html=1;rotation=-60;flipV=0;flipH=1;" vertex="1" parent="NqdS10v-dnyxQDhLEZVA-262">
          <mxGeometry x="233.91836734693877" y="105.32682926829268" width="17.06122448979592" height="7.317073170731707" as="geometry" />
        </mxCell>
        <mxCell id="NqdS10v-dnyxQDhLEZVA-128" style="edgeStyle=orthogonalEdgeStyle;rounded=0;orthogonalLoop=1;jettySize=auto;html=1;exitX=1;exitY=0.75;exitDx=0;exitDy=0;entryX=1;entryY=0.25;entryDx=0;entryDy=0;endArrow=none;endFill=0;" edge="1" parent="NqdS10v-dnyxQDhLEZVA-262" source="NqdS10v-dnyxQDhLEZVA-129" target="NqdS10v-dnyxQDhLEZVA-135">
          <mxGeometry relative="1" as="geometry" />
        </mxCell>
        <mxCell id="NqdS10v-dnyxQDhLEZVA-137" value="" style="rounded=0;whiteSpace=wrap;html=1;rotation=60;flipV=0;flipH=1;" vertex="1" parent="NqdS10v-dnyxQDhLEZVA-262">
          <mxGeometry x="199.79591836734693" y="106.30243902439025" width="17.06122448979592" height="7.317073170731707" as="geometry" />
        </mxCell>
        <mxCell id="NqdS10v-dnyxQDhLEZVA-118" style="edgeStyle=orthogonalEdgeStyle;rounded=0;orthogonalLoop=1;jettySize=auto;html=1;exitX=0;exitY=0.75;exitDx=0;exitDy=0;entryX=0;entryY=0.25;entryDx=0;entryDy=0;endArrow=none;endFill=0;" edge="1" parent="NqdS10v-dnyxQDhLEZVA-262" source="NqdS10v-dnyxQDhLEZVA-119" target="NqdS10v-dnyxQDhLEZVA-137">
          <mxGeometry relative="1" as="geometry" />
        </mxCell>
        <mxCell id="NqdS10v-dnyxQDhLEZVA-125" style="edgeStyle=orthogonalEdgeStyle;rounded=0;orthogonalLoop=1;jettySize=auto;html=1;exitX=1;exitY=0.75;exitDx=0;exitDy=0;entryX=0;entryY=0.75;entryDx=0;entryDy=0;endArrow=none;endFill=0;" edge="1" parent="NqdS10v-dnyxQDhLEZVA-262" source="NqdS10v-dnyxQDhLEZVA-127" target="NqdS10v-dnyxQDhLEZVA-137">
          <mxGeometry relative="1" as="geometry" />
        </mxCell>
        <mxCell id="NqdS10v-dnyxQDhLEZVA-138" style="edgeStyle=orthogonalEdgeStyle;rounded=0;orthogonalLoop=1;jettySize=auto;html=1;exitX=1;exitY=0.25;exitDx=0;exitDy=0;entryX=0;entryY=0.25;entryDx=0;entryDy=0;endArrow=none;endFill=0;" edge="1" parent="NqdS10v-dnyxQDhLEZVA-262" source="NqdS10v-dnyxQDhLEZVA-142" target="NqdS10v-dnyxQDhLEZVA-135">
          <mxGeometry relative="1" as="geometry" />
        </mxCell>
        <mxCell id="NqdS10v-dnyxQDhLEZVA-139" style="edgeStyle=orthogonalEdgeStyle;rounded=0;orthogonalLoop=1;jettySize=auto;html=1;exitX=0;exitY=0.25;exitDx=0;exitDy=0;entryX=1;entryY=0.25;entryDx=0;entryDy=0;endArrow=none;endFill=0;" edge="1" parent="NqdS10v-dnyxQDhLEZVA-262" source="NqdS10v-dnyxQDhLEZVA-142" target="NqdS10v-dnyxQDhLEZVA-137">
          <mxGeometry relative="1" as="geometry" />
        </mxCell>
        <mxCell id="NqdS10v-dnyxQDhLEZVA-142" value="" style="rounded=0;whiteSpace=wrap;html=1;rotation=0;flipV=0;flipH=1;" vertex="1" parent="NqdS10v-dnyxQDhLEZVA-262">
          <mxGeometry x="216.85714285714286" y="117.5219512195122" width="17.06122448979592" height="7.317073170731707" as="geometry" />
        </mxCell>
        <mxCell id="NqdS10v-dnyxQDhLEZVA-143" value="" style="rounded=0;whiteSpace=wrap;html=1;rotation=-60;" vertex="1" parent="NqdS10v-dnyxQDhLEZVA-262">
          <mxGeometry x="165.6734693877551" y="106.30243902439025" width="17.06122448979592" height="7.317073170731707" as="geometry" />
        </mxCell>
        <mxCell id="NqdS10v-dnyxQDhLEZVA-121" style="edgeStyle=orthogonalEdgeStyle;rounded=0;orthogonalLoop=1;jettySize=auto;html=1;exitX=1;exitY=0.75;exitDx=0;exitDy=0;entryX=1;entryY=0.25;entryDx=0;entryDy=0;endArrow=none;endFill=0;" edge="1" parent="NqdS10v-dnyxQDhLEZVA-262" source="NqdS10v-dnyxQDhLEZVA-122" target="NqdS10v-dnyxQDhLEZVA-143">
          <mxGeometry relative="1" as="geometry" />
        </mxCell>
        <mxCell id="NqdS10v-dnyxQDhLEZVA-126" style="edgeStyle=orthogonalEdgeStyle;rounded=0;orthogonalLoop=1;jettySize=auto;html=1;exitX=0;exitY=0.75;exitDx=0;exitDy=0;entryX=1;entryY=0.75;entryDx=0;entryDy=0;endArrow=none;endFill=0;" edge="1" parent="NqdS10v-dnyxQDhLEZVA-262" source="NqdS10v-dnyxQDhLEZVA-127" target="NqdS10v-dnyxQDhLEZVA-143">
          <mxGeometry relative="1" as="geometry" />
        </mxCell>
        <mxCell id="NqdS10v-dnyxQDhLEZVA-144" value="" style="rounded=0;whiteSpace=wrap;html=1;rotation=-60;flipV=0;flipH=1;" vertex="1" parent="NqdS10v-dnyxQDhLEZVA-262">
          <mxGeometry x="199.79591836734693" y="128.25365853658536" width="17.06122448979592" height="7.317073170731707" as="geometry" />
        </mxCell>
        <mxCell id="NqdS10v-dnyxQDhLEZVA-136" style="edgeStyle=orthogonalEdgeStyle;rounded=0;orthogonalLoop=1;jettySize=auto;html=1;exitX=1;exitY=0.75;exitDx=0;exitDy=0;entryX=1;entryY=0.25;entryDx=0;entryDy=0;endArrow=none;endFill=0;" edge="1" parent="NqdS10v-dnyxQDhLEZVA-262" source="NqdS10v-dnyxQDhLEZVA-137" target="NqdS10v-dnyxQDhLEZVA-144">
          <mxGeometry relative="1" as="geometry" />
        </mxCell>
        <mxCell id="NqdS10v-dnyxQDhLEZVA-140" style="edgeStyle=orthogonalEdgeStyle;rounded=0;orthogonalLoop=1;jettySize=auto;html=1;exitX=0;exitY=0.75;exitDx=0;exitDy=0;entryX=1;entryY=0.75;entryDx=0;entryDy=0;endArrow=none;endFill=0;" edge="1" parent="NqdS10v-dnyxQDhLEZVA-262" source="NqdS10v-dnyxQDhLEZVA-142" target="NqdS10v-dnyxQDhLEZVA-144">
          <mxGeometry relative="1" as="geometry" />
        </mxCell>
        <mxCell id="NqdS10v-dnyxQDhLEZVA-145" style="edgeStyle=orthogonalEdgeStyle;rounded=0;orthogonalLoop=1;jettySize=auto;html=1;exitX=0;exitY=0.25;exitDx=0;exitDy=0;entryX=0;entryY=0.75;entryDx=0;entryDy=0;endArrow=none;endFill=0;" edge="1" parent="NqdS10v-dnyxQDhLEZVA-262" source="NqdS10v-dnyxQDhLEZVA-147" target="NqdS10v-dnyxQDhLEZVA-143">
          <mxGeometry relative="1" as="geometry" />
        </mxCell>
        <mxCell id="NqdS10v-dnyxQDhLEZVA-147" value="" style="rounded=0;whiteSpace=wrap;html=1;rotation=60;flipV=0;flipH=1;" vertex="1" parent="NqdS10v-dnyxQDhLEZVA-262">
          <mxGeometry x="165.6734693877551" y="128.25365853658536" width="17.06122448979592" height="7.317073170731707" as="geometry" />
        </mxCell>
        <mxCell id="NqdS10v-dnyxQDhLEZVA-148" style="edgeStyle=orthogonalEdgeStyle;rounded=0;orthogonalLoop=1;jettySize=auto;html=1;exitX=1;exitY=0.25;exitDx=0;exitDy=0;entryX=0;entryY=0.25;entryDx=0;entryDy=0;endArrow=none;endFill=0;" edge="1" parent="NqdS10v-dnyxQDhLEZVA-262" source="NqdS10v-dnyxQDhLEZVA-152" target="NqdS10v-dnyxQDhLEZVA-144">
          <mxGeometry relative="1" as="geometry" />
        </mxCell>
        <mxCell id="NqdS10v-dnyxQDhLEZVA-149" style="edgeStyle=orthogonalEdgeStyle;rounded=0;orthogonalLoop=1;jettySize=auto;html=1;exitX=0;exitY=0.25;exitDx=0;exitDy=0;entryX=1;entryY=0.25;entryDx=0;entryDy=0;endArrow=none;endFill=0;" edge="1" parent="NqdS10v-dnyxQDhLEZVA-262" source="NqdS10v-dnyxQDhLEZVA-152" target="NqdS10v-dnyxQDhLEZVA-147">
          <mxGeometry relative="1" as="geometry" />
        </mxCell>
        <mxCell id="NqdS10v-dnyxQDhLEZVA-152" value="" style="rounded=0;whiteSpace=wrap;html=1;rotation=0;flipV=0;flipH=1;" vertex="1" parent="NqdS10v-dnyxQDhLEZVA-262">
          <mxGeometry x="182.73469387755102" y="140.4487804878049" width="17.06122448979592" height="7.317073170731707" as="geometry" />
        </mxCell>
        <mxCell id="NqdS10v-dnyxQDhLEZVA-154" style="edgeStyle=orthogonalEdgeStyle;rounded=0;orthogonalLoop=1;jettySize=auto;html=1;exitX=0;exitY=0.25;exitDx=0;exitDy=0;entryX=0;entryY=0.75;entryDx=0;entryDy=0;endArrow=none;endFill=0;" edge="1" parent="NqdS10v-dnyxQDhLEZVA-262" source="NqdS10v-dnyxQDhLEZVA-155" target="NqdS10v-dnyxQDhLEZVA-135">
          <mxGeometry relative="1" as="geometry" />
        </mxCell>
        <mxCell id="NqdS10v-dnyxQDhLEZVA-155" value="" style="rounded=0;whiteSpace=wrap;html=1;rotation=60;" vertex="1" parent="NqdS10v-dnyxQDhLEZVA-262">
          <mxGeometry x="233.91836734693877" y="130.93658536585366" width="17.06122448979592" height="7.317073170731707" as="geometry" />
        </mxCell>
        <mxCell id="NqdS10v-dnyxQDhLEZVA-141" style="edgeStyle=orthogonalEdgeStyle;rounded=0;orthogonalLoop=1;jettySize=auto;html=1;exitX=1;exitY=0.75;exitDx=0;exitDy=0;entryX=0;entryY=0.75;entryDx=0;entryDy=0;endArrow=none;endFill=0;" edge="1" parent="NqdS10v-dnyxQDhLEZVA-262" source="NqdS10v-dnyxQDhLEZVA-142" target="NqdS10v-dnyxQDhLEZVA-155">
          <mxGeometry relative="1" as="geometry" />
        </mxCell>
        <mxCell id="NqdS10v-dnyxQDhLEZVA-156" value="" style="rounded=0;whiteSpace=wrap;html=1;rotation=-60;flipV=0;flipH=1;" vertex="1" parent="NqdS10v-dnyxQDhLEZVA-262">
          <mxGeometry x="233.91836734693877" y="152.88780487804877" width="17.06122448979592" height="7.317073170731707" as="geometry" />
        </mxCell>
        <mxCell id="NqdS10v-dnyxQDhLEZVA-153" style="edgeStyle=orthogonalEdgeStyle;rounded=0;orthogonalLoop=1;jettySize=auto;html=1;exitX=1;exitY=0.75;exitDx=0;exitDy=0;entryX=1;entryY=0.25;entryDx=0;entryDy=0;endArrow=none;endFill=0;" edge="1" parent="NqdS10v-dnyxQDhLEZVA-262" source="NqdS10v-dnyxQDhLEZVA-155" target="NqdS10v-dnyxQDhLEZVA-156">
          <mxGeometry relative="1" as="geometry" />
        </mxCell>
        <mxCell id="NqdS10v-dnyxQDhLEZVA-157" style="edgeStyle=orthogonalEdgeStyle;rounded=0;orthogonalLoop=1;jettySize=auto;html=1;exitX=0;exitY=0.25;exitDx=0;exitDy=0;entryX=0;entryY=0.75;entryDx=0;entryDy=0;endArrow=none;endFill=0;" edge="1" parent="NqdS10v-dnyxQDhLEZVA-262" source="NqdS10v-dnyxQDhLEZVA-158" target="NqdS10v-dnyxQDhLEZVA-144">
          <mxGeometry relative="1" as="geometry" />
        </mxCell>
        <mxCell id="NqdS10v-dnyxQDhLEZVA-158" value="" style="rounded=0;whiteSpace=wrap;html=1;rotation=60;flipV=0;flipH=1;" vertex="1" parent="NqdS10v-dnyxQDhLEZVA-262">
          <mxGeometry x="199.79591836734693" y="152.88780487804877" width="17.06122448979592" height="7.317073170731707" as="geometry" />
        </mxCell>
        <mxCell id="NqdS10v-dnyxQDhLEZVA-150" style="edgeStyle=orthogonalEdgeStyle;rounded=0;orthogonalLoop=1;jettySize=auto;html=1;exitX=1;exitY=0.75;exitDx=0;exitDy=0;entryX=0;entryY=0.75;entryDx=0;entryDy=0;endArrow=none;endFill=0;" edge="1" parent="NqdS10v-dnyxQDhLEZVA-262" source="NqdS10v-dnyxQDhLEZVA-152" target="NqdS10v-dnyxQDhLEZVA-158">
          <mxGeometry relative="1" as="geometry" />
        </mxCell>
        <mxCell id="NqdS10v-dnyxQDhLEZVA-159" style="edgeStyle=orthogonalEdgeStyle;rounded=0;orthogonalLoop=1;jettySize=auto;html=1;exitX=1;exitY=0.25;exitDx=0;exitDy=0;entryX=0;entryY=0.25;entryDx=0;entryDy=0;endArrow=none;endFill=0;" edge="1" parent="NqdS10v-dnyxQDhLEZVA-262" source="NqdS10v-dnyxQDhLEZVA-161" target="NqdS10v-dnyxQDhLEZVA-156">
          <mxGeometry relative="1" as="geometry" />
        </mxCell>
        <mxCell id="NqdS10v-dnyxQDhLEZVA-160" style="edgeStyle=orthogonalEdgeStyle;rounded=0;orthogonalLoop=1;jettySize=auto;html=1;exitX=0;exitY=0.25;exitDx=0;exitDy=0;entryX=1;entryY=0.25;entryDx=0;entryDy=0;endArrow=none;endFill=0;" edge="1" parent="NqdS10v-dnyxQDhLEZVA-262" source="NqdS10v-dnyxQDhLEZVA-161" target="NqdS10v-dnyxQDhLEZVA-158">
          <mxGeometry relative="1" as="geometry" />
        </mxCell>
        <mxCell id="NqdS10v-dnyxQDhLEZVA-161" value="" style="rounded=0;whiteSpace=wrap;html=1;rotation=0;flipV=0;flipH=1;" vertex="1" parent="NqdS10v-dnyxQDhLEZVA-262">
          <mxGeometry x="216.85714285714286" y="165.08292682926827" width="17.06122448979592" height="7.317073170731707" as="geometry" />
        </mxCell>
        <mxCell id="NqdS10v-dnyxQDhLEZVA-162" style="edgeStyle=orthogonalEdgeStyle;rounded=0;orthogonalLoop=1;jettySize=auto;html=1;exitX=0;exitY=0.75;exitDx=0;exitDy=0;entryX=0;entryY=0.25;entryDx=0;entryDy=0;endArrow=none;endFill=0;" edge="1" parent="NqdS10v-dnyxQDhLEZVA-262" target="NqdS10v-dnyxQDhLEZVA-112">
          <mxGeometry relative="1" as="geometry">
            <mxPoint x="205.5193284859636" y="49.63389398629485" as="sourcePoint" />
          </mxGeometry>
        </mxCell>
        <mxCell id="NqdS10v-dnyxQDhLEZVA-163" value="" style="rounded=0;whiteSpace=wrap;html=1;rotation=-60;" vertex="1" parent="NqdS10v-dnyxQDhLEZVA-262">
          <mxGeometry x="200.46938775510205" y="36.829268292682926" width="17.06122448979592" height="7.317073170731707" as="geometry" />
        </mxCell>
        <mxCell id="NqdS10v-dnyxQDhLEZVA-164" style="edgeStyle=orthogonalEdgeStyle;rounded=0;orthogonalLoop=1;jettySize=auto;html=1;exitX=1;exitY=0.75;exitDx=0;exitDy=0;entryX=1;entryY=0.25;entryDx=0;entryDy=0;endArrow=none;endFill=0;" edge="1" parent="NqdS10v-dnyxQDhLEZVA-262" target="NqdS10v-dnyxQDhLEZVA-170">
          <mxGeometry relative="1" as="geometry">
            <mxPoint x="245.25618171811803" y="49.63389398629474" as="sourcePoint" />
          </mxGeometry>
        </mxCell>
        <mxCell id="NqdS10v-dnyxQDhLEZVA-165" value="" style="rounded=0;whiteSpace=wrap;html=1;rotation=60;" vertex="1" parent="NqdS10v-dnyxQDhLEZVA-262">
          <mxGeometry x="234.59183673469389" y="36.829268292682926" width="17.06122448979592" height="7.317073170731707" as="geometry" />
        </mxCell>
        <mxCell id="NqdS10v-dnyxQDhLEZVA-166" style="edgeStyle=orthogonalEdgeStyle;rounded=0;orthogonalLoop=1;jettySize=auto;html=1;exitX=0;exitY=0.75;exitDx=0;exitDy=0;entryX=1;entryY=0.75;entryDx=0;entryDy=0;endArrow=none;endFill=0;" edge="1" parent="NqdS10v-dnyxQDhLEZVA-262" source="NqdS10v-dnyxQDhLEZVA-168" target="NqdS10v-dnyxQDhLEZVA-163">
          <mxGeometry relative="1" as="geometry" />
        </mxCell>
        <mxCell id="NqdS10v-dnyxQDhLEZVA-167" style="edgeStyle=orthogonalEdgeStyle;rounded=0;orthogonalLoop=1;jettySize=auto;html=1;exitX=1;exitY=0.75;exitDx=0;exitDy=0;entryX=0;entryY=0.75;entryDx=0;entryDy=0;endArrow=none;endFill=0;" edge="1" parent="NqdS10v-dnyxQDhLEZVA-262" source="NqdS10v-dnyxQDhLEZVA-168" target="NqdS10v-dnyxQDhLEZVA-165">
          <mxGeometry relative="1" as="geometry" />
        </mxCell>
        <mxCell id="NqdS10v-dnyxQDhLEZVA-168" value="" style="rounded=0;whiteSpace=wrap;html=1;rotation=0;" vertex="1" parent="NqdS10v-dnyxQDhLEZVA-262">
          <mxGeometry x="217.53061224489795" y="24.63414634146341" width="17.06122448979592" height="7.317073170731707" as="geometry" />
        </mxCell>
        <mxCell id="NqdS10v-dnyxQDhLEZVA-169" style="edgeStyle=orthogonalEdgeStyle;rounded=0;orthogonalLoop=1;jettySize=auto;html=1;exitX=0;exitY=0.75;exitDx=0;exitDy=0;entryX=0;entryY=0.25;entryDx=0;entryDy=0;endArrow=none;endFill=0;" edge="1" parent="NqdS10v-dnyxQDhLEZVA-262" source="NqdS10v-dnyxQDhLEZVA-170" target="NqdS10v-dnyxQDhLEZVA-129">
          <mxGeometry relative="1" as="geometry" />
        </mxCell>
        <mxCell id="NqdS10v-dnyxQDhLEZVA-170" value="" style="rounded=0;whiteSpace=wrap;html=1;rotation=-60;flipV=0;flipH=1;" vertex="1" parent="NqdS10v-dnyxQDhLEZVA-262">
          <mxGeometry x="233.91836734693877" y="58.98536585365854" width="17.06122448979592" height="7.317073170731707" as="geometry" />
        </mxCell>
        <mxCell id="NqdS10v-dnyxQDhLEZVA-133" style="edgeStyle=orthogonalEdgeStyle;rounded=0;orthogonalLoop=1;jettySize=auto;html=1;exitX=1;exitY=0.25;exitDx=0;exitDy=0;entryX=0;entryY=0.25;entryDx=0;entryDy=0;endArrow=none;endFill=0;" edge="1" parent="NqdS10v-dnyxQDhLEZVA-262" source="NqdS10v-dnyxQDhLEZVA-134" target="NqdS10v-dnyxQDhLEZVA-170">
          <mxGeometry relative="1" as="geometry" />
        </mxCell>
        <mxCell id="NqdS10v-dnyxQDhLEZVA-171" style="edgeStyle=orthogonalEdgeStyle;rounded=0;orthogonalLoop=1;jettySize=auto;html=1;exitX=0;exitY=0.75;exitDx=0;exitDy=0;entryX=1;entryY=0.75;entryDx=0;entryDy=0;endArrow=none;endFill=0;" edge="1" parent="NqdS10v-dnyxQDhLEZVA-262" source="NqdS10v-dnyxQDhLEZVA-174" target="NqdS10v-dnyxQDhLEZVA-170">
          <mxGeometry relative="1" as="geometry" />
        </mxCell>
        <mxCell id="NqdS10v-dnyxQDhLEZVA-172" style="edgeStyle=orthogonalEdgeStyle;rounded=0;orthogonalLoop=1;jettySize=auto;html=1;exitX=0;exitY=0.25;exitDx=0;exitDy=0;entryX=1;entryY=0.25;entryDx=0;entryDy=0;endArrow=none;endFill=0;" edge="1" parent="NqdS10v-dnyxQDhLEZVA-262" source="NqdS10v-dnyxQDhLEZVA-174">
          <mxGeometry relative="1" as="geometry">
            <mxPoint x="248.1723897104534" y="47.804625693611804" as="targetPoint" />
          </mxGeometry>
        </mxCell>
        <mxCell id="NqdS10v-dnyxQDhLEZVA-174" value="" style="rounded=0;whiteSpace=wrap;html=1;rotation=0;" vertex="1" parent="NqdS10v-dnyxQDhLEZVA-262">
          <mxGeometry x="250.9795918367347" y="48.009756097560974" width="17.06122448979592" height="7.317073170731707" as="geometry" />
        </mxCell>
        <mxCell id="NqdS10v-dnyxQDhLEZVA-175" style="edgeStyle=orthogonalEdgeStyle;rounded=0;orthogonalLoop=1;jettySize=auto;html=1;exitX=0;exitY=0.25;exitDx=0;exitDy=0;entryX=1;entryY=0.25;entryDx=0;entryDy=0;endArrow=none;endFill=0;" edge="1" parent="NqdS10v-dnyxQDhLEZVA-262" source="NqdS10v-dnyxQDhLEZVA-179" target="NqdS10v-dnyxQDhLEZVA-129">
          <mxGeometry relative="1" as="geometry" />
        </mxCell>
        <mxCell id="NqdS10v-dnyxQDhLEZVA-176" style="edgeStyle=orthogonalEdgeStyle;rounded=0;orthogonalLoop=1;jettySize=auto;html=1;exitX=0;exitY=0.75;exitDx=0;exitDy=0;entryX=1;entryY=0.75;entryDx=0;entryDy=0;endArrow=none;endFill=0;" edge="1" parent="NqdS10v-dnyxQDhLEZVA-262" source="NqdS10v-dnyxQDhLEZVA-179" target="NqdS10v-dnyxQDhLEZVA-135">
          <mxGeometry relative="1" as="geometry" />
        </mxCell>
        <mxCell id="NqdS10v-dnyxQDhLEZVA-179" value="" style="rounded=0;whiteSpace=wrap;html=1;rotation=0;" vertex="1" parent="NqdS10v-dnyxQDhLEZVA-262">
          <mxGeometry x="250.9795918367347" y="94.35121951219513" width="17.06122448979592" height="7.317073170731707" as="geometry" />
        </mxCell>
        <mxCell id="NqdS10v-dnyxQDhLEZVA-181" value="" style="rounded=0;whiteSpace=wrap;html=1;rotation=60;" vertex="1" parent="NqdS10v-dnyxQDhLEZVA-262">
          <mxGeometry x="268.0408163265306" y="106.30243902439025" width="17.06122448979592" height="7.317073170731707" as="geometry" />
        </mxCell>
        <mxCell id="NqdS10v-dnyxQDhLEZVA-178" style="edgeStyle=orthogonalEdgeStyle;rounded=0;orthogonalLoop=1;jettySize=auto;html=1;exitX=1;exitY=0.75;exitDx=0;exitDy=0;entryX=0;entryY=0.75;entryDx=0;entryDy=0;endArrow=none;endFill=0;" edge="1" parent="NqdS10v-dnyxQDhLEZVA-262" source="NqdS10v-dnyxQDhLEZVA-179" target="NqdS10v-dnyxQDhLEZVA-181">
          <mxGeometry relative="1" as="geometry" />
        </mxCell>
        <mxCell id="NqdS10v-dnyxQDhLEZVA-182" value="" style="rounded=0;whiteSpace=wrap;html=1;rotation=-60;flipV=0;flipH=1;" vertex="1" parent="NqdS10v-dnyxQDhLEZVA-262">
          <mxGeometry x="268.0408163265306" y="128.25365853658536" width="17.06122448979592" height="7.317073170731707" as="geometry" />
        </mxCell>
        <mxCell id="NqdS10v-dnyxQDhLEZVA-180" style="edgeStyle=orthogonalEdgeStyle;rounded=0;orthogonalLoop=1;jettySize=auto;html=1;exitX=1;exitY=0.75;exitDx=0;exitDy=0;entryX=1;entryY=0.25;entryDx=0;entryDy=0;endArrow=none;endFill=0;" edge="1" parent="NqdS10v-dnyxQDhLEZVA-262" source="NqdS10v-dnyxQDhLEZVA-181" target="NqdS10v-dnyxQDhLEZVA-182">
          <mxGeometry relative="1" as="geometry" />
        </mxCell>
        <mxCell id="NqdS10v-dnyxQDhLEZVA-183" style="edgeStyle=orthogonalEdgeStyle;rounded=0;orthogonalLoop=1;jettySize=auto;html=1;exitX=1;exitY=0.25;exitDx=0;exitDy=0;entryX=0;entryY=0.25;entryDx=0;entryDy=0;endArrow=none;endFill=0;" edge="1" parent="NqdS10v-dnyxQDhLEZVA-262" source="NqdS10v-dnyxQDhLEZVA-186" target="NqdS10v-dnyxQDhLEZVA-182">
          <mxGeometry relative="1" as="geometry" />
        </mxCell>
        <mxCell id="NqdS10v-dnyxQDhLEZVA-184" style="edgeStyle=orthogonalEdgeStyle;rounded=0;orthogonalLoop=1;jettySize=auto;html=1;exitX=0;exitY=0.25;exitDx=0;exitDy=0;entryX=1;entryY=0.25;entryDx=0;entryDy=0;endArrow=none;endFill=0;" edge="1" parent="NqdS10v-dnyxQDhLEZVA-262" source="NqdS10v-dnyxQDhLEZVA-186" target="NqdS10v-dnyxQDhLEZVA-155">
          <mxGeometry relative="1" as="geometry" />
        </mxCell>
        <mxCell id="NqdS10v-dnyxQDhLEZVA-185" style="edgeStyle=orthogonalEdgeStyle;rounded=0;orthogonalLoop=1;jettySize=auto;html=1;exitX=0;exitY=0.75;exitDx=0;exitDy=0;entryX=1;entryY=0.75;entryDx=0;entryDy=0;endArrow=none;endFill=0;" edge="1" parent="NqdS10v-dnyxQDhLEZVA-262" source="NqdS10v-dnyxQDhLEZVA-186" target="NqdS10v-dnyxQDhLEZVA-156">
          <mxGeometry relative="1" as="geometry" />
        </mxCell>
        <mxCell id="NqdS10v-dnyxQDhLEZVA-186" value="" style="rounded=0;whiteSpace=wrap;html=1;rotation=0;flipV=0;flipH=1;" vertex="1" parent="NqdS10v-dnyxQDhLEZVA-262">
          <mxGeometry x="250.9795918367347" y="142.1560975609756" width="17.06122448979592" height="7.317073170731707" as="geometry" />
        </mxCell>
        <mxCell id="NqdS10v-dnyxQDhLEZVA-188" value="" style="rounded=0;whiteSpace=wrap;html=1;rotation=60;" vertex="1" parent="NqdS10v-dnyxQDhLEZVA-262">
          <mxGeometry x="268.0408163265306" y="58.98536585365854" width="17.06122448979592" height="7.317073170731707" as="geometry" />
        </mxCell>
        <mxCell id="NqdS10v-dnyxQDhLEZVA-173" style="edgeStyle=orthogonalEdgeStyle;rounded=0;orthogonalLoop=1;jettySize=auto;html=1;exitX=1;exitY=0.75;exitDx=0;exitDy=0;entryX=0;entryY=0.75;entryDx=0;entryDy=0;endArrow=none;endFill=0;" edge="1" parent="NqdS10v-dnyxQDhLEZVA-262" source="NqdS10v-dnyxQDhLEZVA-174" target="NqdS10v-dnyxQDhLEZVA-188">
          <mxGeometry relative="1" as="geometry" />
        </mxCell>
        <mxCell id="NqdS10v-dnyxQDhLEZVA-189" style="edgeStyle=orthogonalEdgeStyle;rounded=0;orthogonalLoop=1;jettySize=auto;html=1;exitX=0;exitY=0.75;exitDx=0;exitDy=0;entryX=0;entryY=0.25;entryDx=0;entryDy=0;endArrow=none;endFill=0;" edge="1" parent="NqdS10v-dnyxQDhLEZVA-262" source="NqdS10v-dnyxQDhLEZVA-190" target="NqdS10v-dnyxQDhLEZVA-181">
          <mxGeometry relative="1" as="geometry" />
        </mxCell>
        <mxCell id="NqdS10v-dnyxQDhLEZVA-190" value="" style="rounded=0;whiteSpace=wrap;html=1;rotation=-60;flipV=0;flipH=1;" vertex="1" parent="NqdS10v-dnyxQDhLEZVA-262">
          <mxGeometry x="268.0408163265306" y="82.15609756097562" width="17.06122448979592" height="7.317073170731707" as="geometry" />
        </mxCell>
        <mxCell id="NqdS10v-dnyxQDhLEZVA-177" style="edgeStyle=orthogonalEdgeStyle;rounded=0;orthogonalLoop=1;jettySize=auto;html=1;exitX=1;exitY=0.25;exitDx=0;exitDy=0;entryX=0;entryY=0.25;entryDx=0;entryDy=0;endArrow=none;endFill=0;" edge="1" parent="NqdS10v-dnyxQDhLEZVA-262" source="NqdS10v-dnyxQDhLEZVA-179" target="NqdS10v-dnyxQDhLEZVA-190">
          <mxGeometry relative="1" as="geometry" />
        </mxCell>
        <mxCell id="NqdS10v-dnyxQDhLEZVA-187" style="edgeStyle=orthogonalEdgeStyle;rounded=0;orthogonalLoop=1;jettySize=auto;html=1;exitX=1;exitY=0.75;exitDx=0;exitDy=0;entryX=1;entryY=0.25;entryDx=0;entryDy=0;endArrow=none;endFill=0;" edge="1" parent="NqdS10v-dnyxQDhLEZVA-262" source="NqdS10v-dnyxQDhLEZVA-188" target="NqdS10v-dnyxQDhLEZVA-190">
          <mxGeometry relative="1" as="geometry" />
        </mxCell>
        <mxCell id="NqdS10v-dnyxQDhLEZVA-191" value="" style="rounded=0;whiteSpace=wrap;html=1;rotation=0;" vertex="1" parent="NqdS10v-dnyxQDhLEZVA-262">
          <mxGeometry x="250.9795918367347" y="48.009756097560974" width="17.06122448979592" height="7.317073170731707" as="geometry" />
        </mxCell>
        <mxCell id="NqdS10v-dnyxQDhLEZVA-192" value="" style="rounded=0;whiteSpace=wrap;html=1;rotation=60;" vertex="1" parent="NqdS10v-dnyxQDhLEZVA-262">
          <mxGeometry x="268.0408163265306" y="58.98536585365854" width="17.06122448979592" height="7.317073170731707" as="geometry" />
        </mxCell>
        <mxCell id="NqdS10v-dnyxQDhLEZVA-193" value="" style="rounded=0;whiteSpace=wrap;html=1;rotation=-60;flipV=0;flipH=1;" vertex="1" parent="NqdS10v-dnyxQDhLEZVA-262">
          <mxGeometry x="268.0408163265306" y="82.15609756097562" width="17.06122448979592" height="7.317073170731707" as="geometry" />
        </mxCell>
        <mxCell id="NqdS10v-dnyxQDhLEZVA-194" value="" style="rounded=0;whiteSpace=wrap;html=1;rotation=0;" vertex="1" parent="NqdS10v-dnyxQDhLEZVA-262">
          <mxGeometry x="250.9795918367347" y="48.009756097560974" width="17.06122448979592" height="7.317073170731707" as="geometry" />
        </mxCell>
        <mxCell id="NqdS10v-dnyxQDhLEZVA-195" value="" style="rounded=0;whiteSpace=wrap;html=1;rotation=60;" vertex="1" parent="NqdS10v-dnyxQDhLEZVA-262">
          <mxGeometry x="268.0408163265306" y="58.98536585365854" width="17.06122448979592" height="7.317073170731707" as="geometry" />
        </mxCell>
        <mxCell id="NqdS10v-dnyxQDhLEZVA-196" value="" style="rounded=0;whiteSpace=wrap;html=1;rotation=-60;flipV=0;flipH=1;" vertex="1" parent="NqdS10v-dnyxQDhLEZVA-262">
          <mxGeometry x="268.0408163265306" y="82.15609756097562" width="17.06122448979592" height="7.317073170731707" as="geometry" />
        </mxCell>
        <mxCell id="NqdS10v-dnyxQDhLEZVA-197" value="" style="rounded=0;whiteSpace=wrap;html=1;rotation=0;" vertex="1" parent="NqdS10v-dnyxQDhLEZVA-262">
          <mxGeometry x="250.9795918367347" y="94.35121951219513" width="17.06122448979592" height="7.317073170731707" as="geometry" />
        </mxCell>
        <mxCell id="NqdS10v-dnyxQDhLEZVA-198" value="" style="rounded=0;whiteSpace=wrap;html=1;rotation=0;" vertex="1" parent="NqdS10v-dnyxQDhLEZVA-262">
          <mxGeometry x="79.24489795918367" y="24.63414634146341" width="17.06122448979592" height="7.317073170731707" as="geometry" />
        </mxCell>
        <mxCell id="NqdS10v-dnyxQDhLEZVA-100" style="edgeStyle=orthogonalEdgeStyle;rounded=0;orthogonalLoop=1;jettySize=auto;html=1;exitX=1;exitY=0.5;exitDx=0;exitDy=0;entryX=0;entryY=0.25;entryDx=0;entryDy=0;endArrow=none;endFill=0;" edge="1" parent="NqdS10v-dnyxQDhLEZVA-262" source="NqdS10v-dnyxQDhLEZVA-101" target="NqdS10v-dnyxQDhLEZVA-198">
          <mxGeometry relative="1" as="geometry" />
        </mxCell>
        <mxCell id="NqdS10v-dnyxQDhLEZVA-199" value="" style="rounded=0;whiteSpace=wrap;html=1;rotation=-60;" vertex="1" parent="NqdS10v-dnyxQDhLEZVA-262">
          <mxGeometry x="62.183673469387756" y="36.829268292682926" width="17.06122448979592" height="7.317073170731707" as="geometry" />
        </mxCell>
        <mxCell id="NqdS10v-dnyxQDhLEZVA-200" value="" style="rounded=0;whiteSpace=wrap;html=1;rotation=60;" vertex="1" parent="NqdS10v-dnyxQDhLEZVA-262">
          <mxGeometry x="62.183673469387756" y="60" width="17.06122448979592" height="7.317073170731707" as="geometry" />
        </mxCell>
        <mxCell id="NqdS10v-dnyxQDhLEZVA-201" value="" style="rounded=0;whiteSpace=wrap;html=1;rotation=-60;flipV=0;flipH=1;" vertex="1" parent="NqdS10v-dnyxQDhLEZVA-262">
          <mxGeometry x="62.183673469387756" y="81.95121951219512" width="17.06122448979592" height="7.317073170731707" as="geometry" />
        </mxCell>
        <mxCell id="NqdS10v-dnyxQDhLEZVA-202" value="" style="rounded=0;whiteSpace=wrap;html=1;rotation=60;flipV=0;flipH=1;" vertex="1" parent="NqdS10v-dnyxQDhLEZVA-262">
          <mxGeometry x="62.183673469387756" y="106.09756097560975" width="17.06122448979592" height="7.317073170731707" as="geometry" />
        </mxCell>
        <mxCell id="NqdS10v-dnyxQDhLEZVA-203" style="edgeStyle=orthogonalEdgeStyle;rounded=0;orthogonalLoop=1;jettySize=auto;html=1;exitX=0;exitY=0.75;exitDx=0;exitDy=0;entryX=1;entryY=0.75;entryDx=0;entryDy=0;endArrow=none;endFill=0;" edge="1" parent="NqdS10v-dnyxQDhLEZVA-262" source="NqdS10v-dnyxQDhLEZVA-207" target="NqdS10v-dnyxQDhLEZVA-108">
          <mxGeometry relative="1" as="geometry" />
        </mxCell>
        <mxCell id="NqdS10v-dnyxQDhLEZVA-204" style="edgeStyle=orthogonalEdgeStyle;rounded=0;orthogonalLoop=1;jettySize=auto;html=1;exitX=0;exitY=0.25;exitDx=0;exitDy=0;entryX=1;entryY=0.25;entryDx=0;entryDy=0;endArrow=none;endFill=0;" edge="1" parent="NqdS10v-dnyxQDhLEZVA-262" source="NqdS10v-dnyxQDhLEZVA-207" target="NqdS10v-dnyxQDhLEZVA-107">
          <mxGeometry relative="1" as="geometry" />
        </mxCell>
        <mxCell id="NqdS10v-dnyxQDhLEZVA-205" style="edgeStyle=orthogonalEdgeStyle;rounded=0;orthogonalLoop=1;jettySize=auto;html=1;exitX=1;exitY=0.25;exitDx=0;exitDy=0;entryX=0;entryY=0.25;entryDx=0;entryDy=0;endArrow=none;endFill=0;" edge="1" parent="NqdS10v-dnyxQDhLEZVA-262" source="NqdS10v-dnyxQDhLEZVA-207" target="NqdS10v-dnyxQDhLEZVA-110">
          <mxGeometry relative="1" as="geometry" />
        </mxCell>
        <mxCell id="NqdS10v-dnyxQDhLEZVA-206" style="edgeStyle=orthogonalEdgeStyle;rounded=0;orthogonalLoop=1;jettySize=auto;html=1;exitX=1;exitY=0.75;exitDx=0;exitDy=0;entryX=0;entryY=0.75;entryDx=0;entryDy=0;endArrow=none;endFill=0;" edge="1" parent="NqdS10v-dnyxQDhLEZVA-262" source="NqdS10v-dnyxQDhLEZVA-207" target="NqdS10v-dnyxQDhLEZVA-122">
          <mxGeometry relative="1" as="geometry" />
        </mxCell>
        <mxCell id="NqdS10v-dnyxQDhLEZVA-207" value="" style="rounded=0;whiteSpace=wrap;html=1;rotation=0;" vertex="1" parent="NqdS10v-dnyxQDhLEZVA-262">
          <mxGeometry x="148.16326530612244" y="71.18048780487806" width="17.06122448979592" height="7.317073170731707" as="geometry" />
        </mxCell>
        <mxCell id="NqdS10v-dnyxQDhLEZVA-208" style="edgeStyle=orthogonalEdgeStyle;rounded=0;orthogonalLoop=1;jettySize=auto;html=1;exitX=0;exitY=0.25;exitDx=0;exitDy=0;entryX=1;entryY=0.25;entryDx=0;entryDy=0;endArrow=none;endFill=0;" edge="1" parent="NqdS10v-dnyxQDhLEZVA-262" source="NqdS10v-dnyxQDhLEZVA-212" target="NqdS10v-dnyxQDhLEZVA-89">
          <mxGeometry relative="1" as="geometry" />
        </mxCell>
        <mxCell id="NqdS10v-dnyxQDhLEZVA-209" style="edgeStyle=orthogonalEdgeStyle;rounded=0;orthogonalLoop=1;jettySize=auto;html=1;exitX=0;exitY=0.75;exitDx=0;exitDy=0;entryX=1;entryY=0.75;entryDx=0;entryDy=0;endArrow=none;endFill=0;" edge="1" parent="NqdS10v-dnyxQDhLEZVA-262" source="NqdS10v-dnyxQDhLEZVA-212" target="NqdS10v-dnyxQDhLEZVA-90">
          <mxGeometry relative="1" as="geometry" />
        </mxCell>
        <mxCell id="NqdS10v-dnyxQDhLEZVA-210" style="edgeStyle=orthogonalEdgeStyle;rounded=0;orthogonalLoop=1;jettySize=auto;html=1;exitX=1;exitY=0.25;exitDx=0;exitDy=0;entryX=0;entryY=0.25;entryDx=0;entryDy=0;endArrow=none;endFill=0;" edge="1" parent="NqdS10v-dnyxQDhLEZVA-262" source="NqdS10v-dnyxQDhLEZVA-212" target="NqdS10v-dnyxQDhLEZVA-143">
          <mxGeometry relative="1" as="geometry" />
        </mxCell>
        <mxCell id="NqdS10v-dnyxQDhLEZVA-211" style="edgeStyle=orthogonalEdgeStyle;rounded=0;orthogonalLoop=1;jettySize=auto;html=1;exitX=1;exitY=0.75;exitDx=0;exitDy=0;entryX=0;entryY=0.75;entryDx=0;entryDy=0;endArrow=none;endFill=0;" edge="1" parent="NqdS10v-dnyxQDhLEZVA-262" source="NqdS10v-dnyxQDhLEZVA-212" target="NqdS10v-dnyxQDhLEZVA-147">
          <mxGeometry relative="1" as="geometry" />
        </mxCell>
        <mxCell id="NqdS10v-dnyxQDhLEZVA-212" value="" style="rounded=0;whiteSpace=wrap;html=1;rotation=0;flipV=0;flipH=1;" vertex="1" parent="NqdS10v-dnyxQDhLEZVA-262">
          <mxGeometry x="148.16326530612244" y="117.31707317073172" width="17.06122448979592" height="7.317073170731707" as="geometry" />
        </mxCell>
        <mxCell id="NqdS10v-dnyxQDhLEZVA-215" value="" style="rounded=0;whiteSpace=wrap;html=1;rotation=0;flipV=0;flipH=1;" vertex="1" parent="NqdS10v-dnyxQDhLEZVA-262">
          <mxGeometry x="148.16326530612244" y="164.87804878048786" width="17.06122448979592" height="7.317073170731707" as="geometry" />
        </mxCell>
        <mxCell id="NqdS10v-dnyxQDhLEZVA-218" value="" style="rounded=0;whiteSpace=wrap;html=1;rotation=0;" vertex="1" parent="NqdS10v-dnyxQDhLEZVA-262">
          <mxGeometry x="148.16326530612244" y="24.63414634146341" width="17.06122448979592" height="7.317073170731707" as="geometry" />
        </mxCell>
        <mxCell id="NqdS10v-dnyxQDhLEZVA-219" style="edgeStyle=orthogonalEdgeStyle;rounded=0;orthogonalLoop=1;jettySize=auto;html=1;exitX=1;exitY=0.75;exitDx=0;exitDy=0;entryX=1;entryY=0.25;entryDx=0;entryDy=0;endArrow=none;endFill=0;" edge="1" parent="NqdS10v-dnyxQDhLEZVA-262" source="NqdS10v-dnyxQDhLEZVA-220" target="NqdS10v-dnyxQDhLEZVA-110">
          <mxGeometry relative="1" as="geometry" />
        </mxCell>
        <mxCell id="NqdS10v-dnyxQDhLEZVA-220" value="" style="rounded=0;whiteSpace=wrap;html=1;rotation=60;" vertex="1" parent="NqdS10v-dnyxQDhLEZVA-262">
          <mxGeometry x="165.6734693877551" y="36.829268292682926" width="17.06122448979592" height="7.317073170731707" as="geometry" />
        </mxCell>
        <mxCell id="NqdS10v-dnyxQDhLEZVA-116" style="edgeStyle=orthogonalEdgeStyle;rounded=0;orthogonalLoop=1;jettySize=auto;html=1;exitX=0;exitY=0.25;exitDx=0;exitDy=0;entryX=1;entryY=0.25;entryDx=0;entryDy=0;endArrow=none;endFill=0;" edge="1" parent="NqdS10v-dnyxQDhLEZVA-262" source="NqdS10v-dnyxQDhLEZVA-117" target="NqdS10v-dnyxQDhLEZVA-220">
          <mxGeometry relative="1" as="geometry" />
        </mxCell>
        <mxCell id="NqdS10v-dnyxQDhLEZVA-217" style="edgeStyle=orthogonalEdgeStyle;rounded=0;orthogonalLoop=1;jettySize=auto;html=1;exitX=1;exitY=0.75;exitDx=0;exitDy=0;entryX=0;entryY=0.75;entryDx=0;entryDy=0;endArrow=none;endFill=0;" edge="1" parent="NqdS10v-dnyxQDhLEZVA-262" source="NqdS10v-dnyxQDhLEZVA-218" target="NqdS10v-dnyxQDhLEZVA-220">
          <mxGeometry relative="1" as="geometry" />
        </mxCell>
        <mxCell id="NqdS10v-dnyxQDhLEZVA-221" style="edgeStyle=orthogonalEdgeStyle;rounded=0;orthogonalLoop=1;jettySize=auto;html=1;exitX=0;exitY=0.75;exitDx=0;exitDy=0;entryX=0;entryY=0.25;entryDx=0;entryDy=0;endArrow=none;endFill=0;" edge="1" parent="NqdS10v-dnyxQDhLEZVA-262" source="NqdS10v-dnyxQDhLEZVA-222" target="NqdS10v-dnyxQDhLEZVA-107">
          <mxGeometry relative="1" as="geometry" />
        </mxCell>
        <mxCell id="NqdS10v-dnyxQDhLEZVA-222" value="" style="rounded=0;whiteSpace=wrap;html=1;rotation=-60;" vertex="1" parent="NqdS10v-dnyxQDhLEZVA-262">
          <mxGeometry x="130.42857142857142" y="36.829268292682926" width="17.06122448979592" height="7.317073170731707" as="geometry" />
        </mxCell>
        <mxCell id="NqdS10v-dnyxQDhLEZVA-105" style="edgeStyle=orthogonalEdgeStyle;rounded=0;orthogonalLoop=1;jettySize=auto;html=1;exitX=1;exitY=0.25;exitDx=0;exitDy=0;entryX=0;entryY=0.25;entryDx=0;entryDy=0;endArrow=none;endFill=0;" edge="1" parent="NqdS10v-dnyxQDhLEZVA-262" source="NqdS10v-dnyxQDhLEZVA-106" target="NqdS10v-dnyxQDhLEZVA-222">
          <mxGeometry relative="1" as="geometry" />
        </mxCell>
        <mxCell id="NqdS10v-dnyxQDhLEZVA-216" style="edgeStyle=orthogonalEdgeStyle;rounded=0;orthogonalLoop=1;jettySize=auto;html=1;exitX=0;exitY=0.75;exitDx=0;exitDy=0;entryX=1;entryY=0.75;entryDx=0;entryDy=0;endArrow=none;endFill=0;" edge="1" parent="NqdS10v-dnyxQDhLEZVA-262" source="NqdS10v-dnyxQDhLEZVA-218" target="NqdS10v-dnyxQDhLEZVA-222">
          <mxGeometry relative="1" as="geometry" />
        </mxCell>
        <mxCell id="NqdS10v-dnyxQDhLEZVA-223" value="" style="rounded=0;whiteSpace=wrap;html=1;rotation=-60;flipV=0;flipH=1;" vertex="1" parent="NqdS10v-dnyxQDhLEZVA-262">
          <mxGeometry x="165.6734693877551" y="152.88780487804877" width="17.06122448979592" height="7.317073170731707" as="geometry" />
        </mxCell>
        <mxCell id="NqdS10v-dnyxQDhLEZVA-146" style="edgeStyle=orthogonalEdgeStyle;rounded=0;orthogonalLoop=1;jettySize=auto;html=1;exitX=1;exitY=0.75;exitDx=0;exitDy=0;entryX=1;entryY=0.25;entryDx=0;entryDy=0;endArrow=none;endFill=0;" edge="1" parent="NqdS10v-dnyxQDhLEZVA-262" source="NqdS10v-dnyxQDhLEZVA-147" target="NqdS10v-dnyxQDhLEZVA-223">
          <mxGeometry relative="1" as="geometry" />
        </mxCell>
        <mxCell id="NqdS10v-dnyxQDhLEZVA-151" style="edgeStyle=orthogonalEdgeStyle;rounded=0;orthogonalLoop=1;jettySize=auto;html=1;exitX=0;exitY=0.75;exitDx=0;exitDy=0;entryX=1;entryY=0.75;entryDx=0;entryDy=0;endArrow=none;endFill=0;" edge="1" parent="NqdS10v-dnyxQDhLEZVA-262" source="NqdS10v-dnyxQDhLEZVA-152" target="NqdS10v-dnyxQDhLEZVA-223">
          <mxGeometry relative="1" as="geometry" />
        </mxCell>
        <mxCell id="NqdS10v-dnyxQDhLEZVA-214" style="edgeStyle=orthogonalEdgeStyle;rounded=0;orthogonalLoop=1;jettySize=auto;html=1;exitX=1;exitY=0.25;exitDx=0;exitDy=0;entryX=0;entryY=0.25;entryDx=0;entryDy=0;endArrow=none;endFill=0;" edge="1" parent="NqdS10v-dnyxQDhLEZVA-262" source="NqdS10v-dnyxQDhLEZVA-215" target="NqdS10v-dnyxQDhLEZVA-223">
          <mxGeometry relative="1" as="geometry" />
        </mxCell>
        <mxCell id="NqdS10v-dnyxQDhLEZVA-224" style="edgeStyle=orthogonalEdgeStyle;rounded=0;orthogonalLoop=1;jettySize=auto;html=1;exitX=0;exitY=0.25;exitDx=0;exitDy=0;entryX=0;entryY=0.75;entryDx=0;entryDy=0;endArrow=none;endFill=0;" edge="1" parent="NqdS10v-dnyxQDhLEZVA-262" source="NqdS10v-dnyxQDhLEZVA-225" target="NqdS10v-dnyxQDhLEZVA-90">
          <mxGeometry relative="1" as="geometry" />
        </mxCell>
        <mxCell id="NqdS10v-dnyxQDhLEZVA-225" value="" style="rounded=0;whiteSpace=wrap;html=1;rotation=60;flipV=0;flipH=1;" vertex="1" parent="NqdS10v-dnyxQDhLEZVA-262">
          <mxGeometry x="130.42857142857142" y="152.68292682926833" width="17.06122448979592" height="7.317073170731707" as="geometry" />
        </mxCell>
        <mxCell id="NqdS10v-dnyxQDhLEZVA-94" style="edgeStyle=orthogonalEdgeStyle;rounded=0;orthogonalLoop=1;jettySize=auto;html=1;exitX=1;exitY=0.75;exitDx=0;exitDy=0;endArrow=none;endFill=0;entryX=0;entryY=0.75;entryDx=0;entryDy=0;" edge="1" parent="NqdS10v-dnyxQDhLEZVA-262" source="NqdS10v-dnyxQDhLEZVA-95" target="NqdS10v-dnyxQDhLEZVA-225">
          <mxGeometry relative="1" as="geometry">
            <mxPoint x="149.0612244897959" y="147.47967479674796" as="targetPoint" />
          </mxGeometry>
        </mxCell>
        <mxCell id="NqdS10v-dnyxQDhLEZVA-213" style="edgeStyle=orthogonalEdgeStyle;rounded=0;orthogonalLoop=1;jettySize=auto;html=1;exitX=0;exitY=0.25;exitDx=0;exitDy=0;entryX=1;entryY=0.25;entryDx=0;entryDy=0;endArrow=none;endFill=0;" edge="1" parent="NqdS10v-dnyxQDhLEZVA-262" source="NqdS10v-dnyxQDhLEZVA-215" target="NqdS10v-dnyxQDhLEZVA-225">
          <mxGeometry relative="1" as="geometry" />
        </mxCell>
        <mxCell id="NqdS10v-dnyxQDhLEZVA-226" style="edgeStyle=orthogonalEdgeStyle;rounded=0;orthogonalLoop=1;jettySize=auto;html=1;exitX=1;exitY=0.5;exitDx=0;exitDy=0;entryX=1;entryY=0.25;entryDx=0;entryDy=0;endArrow=none;endFill=0;" edge="1" parent="NqdS10v-dnyxQDhLEZVA-262" source="NqdS10v-dnyxQDhLEZVA-227" target="NqdS10v-dnyxQDhLEZVA-198">
          <mxGeometry relative="1" as="geometry" />
        </mxCell>
        <mxCell id="NqdS10v-dnyxQDhLEZVA-227" value="" style="triangle;whiteSpace=wrap;html=1;fillColor=#f5f5f5;fontColor=#333333;strokeColor=#666666;rotation=90;" vertex="1" parent="NqdS10v-dnyxQDhLEZVA-262">
          <mxGeometry x="96.41836734693878" y="2.6829268292682924" width="13.46938775510204" height="9.268292682926829" as="geometry" />
        </mxCell>
        <mxCell id="NqdS10v-dnyxQDhLEZVA-228" style="edgeStyle=orthogonalEdgeStyle;rounded=0;orthogonalLoop=1;jettySize=auto;html=1;exitX=1;exitY=0.5;exitDx=0;exitDy=0;entryX=0;entryY=0.25;entryDx=0;entryDy=0;endArrow=none;endFill=0;" edge="1" parent="NqdS10v-dnyxQDhLEZVA-262" source="NqdS10v-dnyxQDhLEZVA-229" target="NqdS10v-dnyxQDhLEZVA-218">
          <mxGeometry relative="1" as="geometry" />
        </mxCell>
        <mxCell id="NqdS10v-dnyxQDhLEZVA-229" value="" style="triangle;whiteSpace=wrap;html=1;fillColor=#f5f5f5;fontColor=#333333;strokeColor=#666666;rotation=90;" vertex="1" parent="NqdS10v-dnyxQDhLEZVA-262">
          <mxGeometry x="134.80612244897958" y="2.6829268292682924" width="13.46938775510204" height="9.268292682926829" as="geometry" />
        </mxCell>
        <mxCell id="NqdS10v-dnyxQDhLEZVA-230" style="edgeStyle=orthogonalEdgeStyle;rounded=0;orthogonalLoop=1;jettySize=auto;html=1;exitX=1;exitY=0.5;exitDx=0;exitDy=0;entryX=1;entryY=0.25;entryDx=0;entryDy=0;endArrow=none;endFill=0;" edge="1" parent="NqdS10v-dnyxQDhLEZVA-262" source="NqdS10v-dnyxQDhLEZVA-231" target="NqdS10v-dnyxQDhLEZVA-218">
          <mxGeometry relative="1" as="geometry" />
        </mxCell>
        <mxCell id="NqdS10v-dnyxQDhLEZVA-231" value="" style="triangle;whiteSpace=wrap;html=1;fillColor=#f5f5f5;fontColor=#333333;strokeColor=#666666;rotation=90;" vertex="1" parent="NqdS10v-dnyxQDhLEZVA-262">
          <mxGeometry x="165.33673469387756" y="2.6829268292682924" width="13.46938775510204" height="9.268292682926829" as="geometry" />
        </mxCell>
        <mxCell id="NqdS10v-dnyxQDhLEZVA-232" style="edgeStyle=orthogonalEdgeStyle;rounded=0;orthogonalLoop=1;jettySize=auto;html=1;exitX=1;exitY=0.5;exitDx=0;exitDy=0;entryX=0;entryY=0.25;entryDx=0;entryDy=0;endArrow=none;endFill=0;" edge="1" parent="NqdS10v-dnyxQDhLEZVA-262" source="NqdS10v-dnyxQDhLEZVA-233" target="NqdS10v-dnyxQDhLEZVA-168">
          <mxGeometry relative="1" as="geometry" />
        </mxCell>
        <mxCell id="NqdS10v-dnyxQDhLEZVA-233" value="" style="triangle;whiteSpace=wrap;html=1;fillColor=#f5f5f5;fontColor=#333333;strokeColor=#666666;rotation=90;" vertex="1" parent="NqdS10v-dnyxQDhLEZVA-262">
          <mxGeometry x="203.5" y="2.6829268292682924" width="13.46938775510204" height="9.268292682926829" as="geometry" />
        </mxCell>
        <mxCell id="NqdS10v-dnyxQDhLEZVA-234" style="edgeStyle=orthogonalEdgeStyle;rounded=0;orthogonalLoop=1;jettySize=auto;html=1;exitX=0;exitY=0.5;exitDx=0;exitDy=0;entryX=0;entryY=0.75;entryDx=0;entryDy=0;endArrow=none;endFill=0;" edge="1" parent="NqdS10v-dnyxQDhLEZVA-262" source="NqdS10v-dnyxQDhLEZVA-235" target="NqdS10v-dnyxQDhLEZVA-69">
          <mxGeometry relative="1" as="geometry" />
        </mxCell>
        <mxCell id="NqdS10v-dnyxQDhLEZVA-235" value="" style="triangle;whiteSpace=wrap;html=1;fillColor=#f5f5f5;fontColor=#333333;strokeColor=#666666;rotation=90;flipV=0;flipH=1;" vertex="1" parent="NqdS10v-dnyxQDhLEZVA-262">
          <mxGeometry x="65.88775510204081" y="188.0487804878049" width="13.46938775510204" height="9.268292682926829" as="geometry" />
        </mxCell>
        <mxCell id="NqdS10v-dnyxQDhLEZVA-236" style="edgeStyle=orthogonalEdgeStyle;rounded=0;orthogonalLoop=1;jettySize=auto;html=1;exitX=0;exitY=0.5;exitDx=0;exitDy=0;entryX=1;entryY=0.75;entryDx=0;entryDy=0;endArrow=none;endFill=0;" edge="1" parent="NqdS10v-dnyxQDhLEZVA-262" source="NqdS10v-dnyxQDhLEZVA-237" target="NqdS10v-dnyxQDhLEZVA-69">
          <mxGeometry relative="1" as="geometry" />
        </mxCell>
        <mxCell id="NqdS10v-dnyxQDhLEZVA-237" value="" style="triangle;whiteSpace=wrap;html=1;fillColor=#f5f5f5;fontColor=#333333;strokeColor=#666666;rotation=90;flipV=0;flipH=1;" vertex="1" parent="NqdS10v-dnyxQDhLEZVA-262">
          <mxGeometry x="96.41836734693878" y="188.0487804878049" width="13.46938775510204" height="9.268292682926829" as="geometry" />
        </mxCell>
        <mxCell id="NqdS10v-dnyxQDhLEZVA-238" style="edgeStyle=orthogonalEdgeStyle;rounded=0;orthogonalLoop=1;jettySize=auto;html=1;exitX=0;exitY=0.5;exitDx=0;exitDy=0;entryX=0;entryY=0.75;entryDx=0;entryDy=0;endArrow=none;endFill=0;" edge="1" parent="NqdS10v-dnyxQDhLEZVA-262" source="NqdS10v-dnyxQDhLEZVA-239" target="NqdS10v-dnyxQDhLEZVA-215">
          <mxGeometry relative="1" as="geometry" />
        </mxCell>
        <mxCell id="NqdS10v-dnyxQDhLEZVA-239" value="" style="triangle;whiteSpace=wrap;html=1;fillColor=#f5f5f5;fontColor=#333333;strokeColor=#666666;rotation=90;flipV=0;flipH=1;" vertex="1" parent="NqdS10v-dnyxQDhLEZVA-262">
          <mxGeometry x="134.80612244897958" y="188.0487804878049" width="13.46938775510204" height="9.268292682926829" as="geometry" />
        </mxCell>
        <mxCell id="NqdS10v-dnyxQDhLEZVA-240" style="edgeStyle=orthogonalEdgeStyle;rounded=0;orthogonalLoop=1;jettySize=auto;html=1;exitX=0;exitY=0.5;exitDx=0;exitDy=0;entryX=1;entryY=0.75;entryDx=0;entryDy=0;endArrow=none;endFill=0;" edge="1" parent="NqdS10v-dnyxQDhLEZVA-262" source="NqdS10v-dnyxQDhLEZVA-241" target="NqdS10v-dnyxQDhLEZVA-215">
          <mxGeometry relative="1" as="geometry" />
        </mxCell>
        <mxCell id="NqdS10v-dnyxQDhLEZVA-241" value="" style="triangle;whiteSpace=wrap;html=1;fillColor=#f5f5f5;fontColor=#333333;strokeColor=#666666;rotation=90;flipV=0;flipH=1;" vertex="1" parent="NqdS10v-dnyxQDhLEZVA-262">
          <mxGeometry x="165.33673469387756" y="188.0487804878049" width="13.46938775510204" height="9.268292682926829" as="geometry" />
        </mxCell>
        <mxCell id="NqdS10v-dnyxQDhLEZVA-242" style="edgeStyle=orthogonalEdgeStyle;rounded=0;orthogonalLoop=1;jettySize=auto;html=1;exitX=0;exitY=0.5;exitDx=0;exitDy=0;entryX=0;entryY=0.75;entryDx=0;entryDy=0;endArrow=none;endFill=0;" edge="1" parent="NqdS10v-dnyxQDhLEZVA-262" source="NqdS10v-dnyxQDhLEZVA-243" target="NqdS10v-dnyxQDhLEZVA-161">
          <mxGeometry relative="1" as="geometry" />
        </mxCell>
        <mxCell id="NqdS10v-dnyxQDhLEZVA-243" value="" style="triangle;whiteSpace=wrap;html=1;fillColor=#f5f5f5;fontColor=#333333;strokeColor=#666666;rotation=90;flipV=0;flipH=1;" vertex="1" parent="NqdS10v-dnyxQDhLEZVA-262">
          <mxGeometry x="203.5" y="188.0487804878049" width="13.46938775510204" height="9.268292682926829" as="geometry" />
        </mxCell>
        <mxCell id="NqdS10v-dnyxQDhLEZVA-244" value="" style="rhombus;whiteSpace=wrap;html=1;fillColor=#ffe6cc;strokeColor=#d79b00;" vertex="1" parent="NqdS10v-dnyxQDhLEZVA-262">
          <mxGeometry y="39.75609756097563" width="17.959183673469386" height="19.512195121951216" as="geometry" />
        </mxCell>
        <mxCell id="NqdS10v-dnyxQDhLEZVA-22" style="edgeStyle=orthogonalEdgeStyle;rounded=0;orthogonalLoop=1;jettySize=auto;html=1;exitX=0;exitY=0.25;exitDx=0;exitDy=0;endArrow=none;endFill=0;" edge="1" parent="NqdS10v-dnyxQDhLEZVA-262" source="NqdS10v-dnyxQDhLEZVA-23" target="NqdS10v-dnyxQDhLEZVA-244">
          <mxGeometry relative="1" as="geometry" />
        </mxCell>
        <mxCell id="NqdS10v-dnyxQDhLEZVA-245" value="" style="rhombus;whiteSpace=wrap;html=1;fillColor=#ffe6cc;strokeColor=#d79b00;" vertex="1" parent="NqdS10v-dnyxQDhLEZVA-262">
          <mxGeometry y="85.60975609756098" width="17.959183673469386" height="19.512195121951216" as="geometry" />
        </mxCell>
        <mxCell id="NqdS10v-dnyxQDhLEZVA-28" style="edgeStyle=orthogonalEdgeStyle;rounded=0;orthogonalLoop=1;jettySize=auto;html=1;exitX=0;exitY=0.75;exitDx=0;exitDy=0;entryX=1;entryY=0.5;entryDx=0;entryDy=0;endArrow=none;endFill=0;" edge="1" parent="NqdS10v-dnyxQDhLEZVA-262" source="NqdS10v-dnyxQDhLEZVA-29" target="NqdS10v-dnyxQDhLEZVA-245">
          <mxGeometry relative="1" as="geometry" />
        </mxCell>
        <mxCell id="NqdS10v-dnyxQDhLEZVA-246" value="" style="rhombus;whiteSpace=wrap;html=1;fillColor=#ffe6cc;strokeColor=#d79b00;" vertex="1" parent="NqdS10v-dnyxQDhLEZVA-262">
          <mxGeometry y="108.49756097560976" width="17.959183673469386" height="19.512195121951216" as="geometry" />
        </mxCell>
        <mxCell id="NqdS10v-dnyxQDhLEZVA-50" style="edgeStyle=orthogonalEdgeStyle;rounded=0;orthogonalLoop=1;jettySize=auto;html=1;exitX=0;exitY=0.25;exitDx=0;exitDy=0;entryX=1;entryY=0.5;entryDx=0;entryDy=0;endArrow=none;endFill=0;" edge="1" parent="NqdS10v-dnyxQDhLEZVA-262" source="NqdS10v-dnyxQDhLEZVA-51" target="NqdS10v-dnyxQDhLEZVA-246">
          <mxGeometry relative="1" as="geometry">
            <Array as="points">
              <mxPoint x="30.979591836734695" y="118.29268292682926" />
              <mxPoint x="23.571428571428573" y="118.29268292682926" />
            </Array>
          </mxGeometry>
        </mxCell>
        <mxCell id="NqdS10v-dnyxQDhLEZVA-247" value="" style="rhombus;whiteSpace=wrap;html=1;fillColor=#ffe6cc;strokeColor=#d79b00;" vertex="1" parent="NqdS10v-dnyxQDhLEZVA-262">
          <mxGeometry y="62.4390243902439" width="17.959183673469386" height="19.512195121951216" as="geometry" />
        </mxCell>
        <mxCell id="NqdS10v-dnyxQDhLEZVA-15" style="edgeStyle=orthogonalEdgeStyle;rounded=0;orthogonalLoop=1;jettySize=auto;html=1;exitX=0;exitY=0.25;exitDx=0;exitDy=0;entryX=0.979;entryY=0.501;entryDx=0;entryDy=0;entryPerimeter=0;endArrow=none;endFill=0;" edge="1" parent="NqdS10v-dnyxQDhLEZVA-262" source="NqdS10v-dnyxQDhLEZVA-16" target="NqdS10v-dnyxQDhLEZVA-247">
          <mxGeometry relative="1" as="geometry">
            <Array as="points">
              <mxPoint x="30.979591836734695" y="72.19512195121952" />
            </Array>
          </mxGeometry>
        </mxCell>
        <mxCell id="NqdS10v-dnyxQDhLEZVA-248" value="" style="rhombus;whiteSpace=wrap;html=1;fillColor=#ffe6cc;strokeColor=#d79b00;" vertex="1" parent="NqdS10v-dnyxQDhLEZVA-262">
          <mxGeometry y="130.93658536585366" width="17.959183673469386" height="19.512195121951216" as="geometry" />
        </mxCell>
        <mxCell id="NqdS10v-dnyxQDhLEZVA-54" style="edgeStyle=orthogonalEdgeStyle;rounded=0;orthogonalLoop=1;jettySize=auto;html=1;exitX=0;exitY=0.75;exitDx=0;exitDy=0;entryX=1;entryY=0.5;entryDx=0;entryDy=0;endArrow=none;endFill=0;" edge="1" parent="NqdS10v-dnyxQDhLEZVA-262" source="NqdS10v-dnyxQDhLEZVA-55" target="NqdS10v-dnyxQDhLEZVA-248">
          <mxGeometry relative="1" as="geometry">
            <Array as="points">
              <mxPoint x="23.79591836734694" y="124.6341463414634" />
              <mxPoint x="23.79591836734694" y="140.7317073170732" />
            </Array>
          </mxGeometry>
        </mxCell>
        <mxCell id="NqdS10v-dnyxQDhLEZVA-249" value="" style="rhombus;whiteSpace=wrap;html=1;fillColor=#ffe6cc;strokeColor=#d79b00;" vertex="1" parent="NqdS10v-dnyxQDhLEZVA-262">
          <mxGeometry y="154.87804878048786" width="17.959183673469386" height="19.512195121951216" as="geometry" />
        </mxCell>
        <mxCell id="NqdS10v-dnyxQDhLEZVA-59" style="edgeStyle=orthogonalEdgeStyle;rounded=0;orthogonalLoop=1;jettySize=auto;html=1;exitX=0;exitY=0.75;exitDx=0;exitDy=0;entryX=1;entryY=0.5;entryDx=0;entryDy=0;endArrow=none;endFill=0;" edge="1" parent="NqdS10v-dnyxQDhLEZVA-262" source="NqdS10v-dnyxQDhLEZVA-60" target="NqdS10v-dnyxQDhLEZVA-249">
          <mxGeometry relative="1" as="geometry" />
        </mxCell>
        <mxCell id="NqdS10v-dnyxQDhLEZVA-250" style="edgeStyle=orthogonalEdgeStyle;rounded=0;orthogonalLoop=1;jettySize=auto;html=1;exitX=1;exitY=0.5;exitDx=0;exitDy=0;entryX=0;entryY=0.25;entryDx=0;entryDy=0;endArrow=none;endFill=0;" edge="1" parent="NqdS10v-dnyxQDhLEZVA-262" source="NqdS10v-dnyxQDhLEZVA-251" target="NqdS10v-dnyxQDhLEZVA-195">
          <mxGeometry relative="1" as="geometry">
            <Array as="points">
              <mxPoint x="273.6530612244898" y="49.75609756097561" />
              <mxPoint x="273.6530612244898" y="53.65853658536586" />
            </Array>
          </mxGeometry>
        </mxCell>
        <mxCell id="NqdS10v-dnyxQDhLEZVA-251" value="" style="shape=step;perimeter=stepPerimeter;whiteSpace=wrap;html=1;fixedSize=1;rotation=-180;fillColor=#f8cecc;strokeColor=#b85450;size=1.4285714285715585;" vertex="1" parent="NqdS10v-dnyxQDhLEZVA-262">
          <mxGeometry x="298.57142857142856" y="40.12195121951219" width="26.93877551020408" height="19.512195121951216" as="geometry" />
        </mxCell>
        <mxCell id="NqdS10v-dnyxQDhLEZVA-252" style="edgeStyle=orthogonalEdgeStyle;rounded=0;orthogonalLoop=1;jettySize=auto;html=1;exitX=1;exitY=0.5;exitDx=0;exitDy=0;entryX=0;entryY=0.75;entryDx=0;entryDy=0;endArrow=none;endFill=0;" edge="1" parent="NqdS10v-dnyxQDhLEZVA-262" source="NqdS10v-dnyxQDhLEZVA-254" target="NqdS10v-dnyxQDhLEZVA-182">
          <mxGeometry relative="1" as="geometry">
            <Array as="points">
              <mxPoint x="273.87755102040813" y="147.80487804878052" />
              <mxPoint x="273.87755102040813" y="140.97560975609758" />
            </Array>
          </mxGeometry>
        </mxCell>
        <mxCell id="NqdS10v-dnyxQDhLEZVA-253" style="edgeStyle=orthogonalEdgeStyle;shape=connector;rounded=0;orthogonalLoop=1;jettySize=auto;html=1;exitX=0;exitY=0.5;exitDx=0;exitDy=0;labelBackgroundColor=default;strokeColor=default;fontFamily=Helvetica;fontSize=11;fontColor=default;endArrow=none;endFill=0;entryX=1;entryY=0.75;entryDx=0;entryDy=0;" edge="1" parent="NqdS10v-dnyxQDhLEZVA-262" source="NqdS10v-dnyxQDhLEZVA-254" target="NqdS10v-dnyxQDhLEZVA-161">
          <mxGeometry relative="1" as="geometry">
            <mxPoint x="249.18367346938774" y="165.609756097561" as="targetPoint" />
            <Array as="points">
              <mxPoint x="330" y="147.80487804878052" />
              <mxPoint x="330" y="170.4878048780488" />
            </Array>
          </mxGeometry>
        </mxCell>
        <mxCell id="NqdS10v-dnyxQDhLEZVA-254" value="" style="shape=step;perimeter=stepPerimeter;whiteSpace=wrap;html=1;fixedSize=1;rotation=-180;fillColor=#f8cecc;strokeColor=#b85450;size=1.4285714285715585;" vertex="1" parent="NqdS10v-dnyxQDhLEZVA-262">
          <mxGeometry x="298.57142857142856" y="138.04878048780492" width="26.93877551020408" height="19.512195121951216" as="geometry" />
        </mxCell>
        <mxCell id="NqdS10v-dnyxQDhLEZVA-255" style="edgeStyle=orthogonalEdgeStyle;shape=connector;rounded=0;orthogonalLoop=1;jettySize=auto;html=1;exitX=0;exitY=0.5;exitDx=0;exitDy=0;labelBackgroundColor=default;strokeColor=default;fontFamily=Helvetica;fontSize=11;fontColor=default;endArrow=none;endFill=0;entryX=1;entryY=0.25;entryDx=0;entryDy=0;" edge="1" parent="NqdS10v-dnyxQDhLEZVA-262" source="NqdS10v-dnyxQDhLEZVA-251" target="NqdS10v-dnyxQDhLEZVA-168">
          <mxGeometry relative="1" as="geometry">
            <mxPoint x="321.6938775510204" y="49.75609756097561" as="sourcePoint" />
            <mxPoint x="240.20408163265307" y="32.19512195121951" as="targetPoint" />
            <Array as="points">
              <mxPoint x="330" y="50" />
              <mxPoint x="330" y="26.585365853658537" />
              <mxPoint x="234.59183673469389" y="26.585365853658537" />
            </Array>
          </mxGeometry>
        </mxCell>
        <mxCell id="NqdS10v-dnyxQDhLEZVA-256" style="edgeStyle=orthogonalEdgeStyle;shape=connector;rounded=0;orthogonalLoop=1;jettySize=auto;html=1;exitX=1;exitY=0.5;exitDx=0;exitDy=0;entryX=1;entryY=0.25;entryDx=0;entryDy=0;labelBackgroundColor=default;strokeColor=default;fontFamily=Helvetica;fontSize=11;fontColor=default;endArrow=none;endFill=0;" edge="1" parent="NqdS10v-dnyxQDhLEZVA-262" source="NqdS10v-dnyxQDhLEZVA-258" target="NqdS10v-dnyxQDhLEZVA-181">
          <mxGeometry relative="1" as="geometry">
            <Array as="points">
              <mxPoint x="282.18367346938777" y="121.21951219512196" />
              <mxPoint x="282.18367346938777" y="117.07317073170731" />
            </Array>
          </mxGeometry>
        </mxCell>
        <mxCell id="NqdS10v-dnyxQDhLEZVA-257" style="edgeStyle=orthogonalEdgeStyle;shape=connector;rounded=0;orthogonalLoop=1;jettySize=auto;html=1;exitX=0;exitY=0.5;exitDx=0;exitDy=0;labelBackgroundColor=default;strokeColor=default;fontFamily=Helvetica;fontSize=11;fontColor=default;endArrow=none;endFill=0;entryX=1;entryY=0.75;entryDx=0;entryDy=0;" edge="1" parent="NqdS10v-dnyxQDhLEZVA-262" source="NqdS10v-dnyxQDhLEZVA-258" target="NqdS10v-dnyxQDhLEZVA-182">
          <mxGeometry relative="1" as="geometry">
            <mxPoint x="280.61224489795916" y="123.17073170731706" as="targetPoint" />
            <Array as="points">
              <mxPoint x="330" y="120.97560975609754" />
              <mxPoint x="330" y="135.3658536585366" />
              <mxPoint x="290.7142857142857" y="135.3658536585366" />
              <mxPoint x="290.7142857142857" y="123.41463414634146" />
              <mxPoint x="282.40816326530614" y="123.41463414634146" />
            </Array>
          </mxGeometry>
        </mxCell>
        <mxCell id="NqdS10v-dnyxQDhLEZVA-258" value="" style="shape=step;perimeter=stepPerimeter;whiteSpace=wrap;html=1;fixedSize=1;rotation=-180;fillColor=#f8cecc;strokeColor=#b85450;size=1.4285714285715585;" vertex="1" parent="NqdS10v-dnyxQDhLEZVA-262">
          <mxGeometry x="298.57142857142856" y="111.21951219512196" width="26.93877551020408" height="19.512195121951216" as="geometry" />
        </mxCell>
        <mxCell id="NqdS10v-dnyxQDhLEZVA-259" style="edgeStyle=orthogonalEdgeStyle;shape=connector;rounded=0;orthogonalLoop=1;jettySize=auto;html=1;exitX=1;exitY=0.5;exitDx=0;exitDy=0;entryX=1;entryY=0.25;entryDx=0;entryDy=0;labelBackgroundColor=default;strokeColor=default;fontFamily=Helvetica;fontSize=11;fontColor=default;endArrow=none;endFill=0;" edge="1" parent="NqdS10v-dnyxQDhLEZVA-262" source="NqdS10v-dnyxQDhLEZVA-261" target="NqdS10v-dnyxQDhLEZVA-195">
          <mxGeometry relative="1" as="geometry">
            <Array as="points">
              <mxPoint x="282.18367346938777" y="74.8780487804878" />
              <mxPoint x="282.18367346938777" y="69.7560975609756" />
            </Array>
          </mxGeometry>
        </mxCell>
        <mxCell id="NqdS10v-dnyxQDhLEZVA-260" style="edgeStyle=orthogonalEdgeStyle;shape=connector;rounded=0;orthogonalLoop=1;jettySize=auto;html=1;exitX=0;exitY=0.5;exitDx=0;exitDy=0;labelBackgroundColor=default;strokeColor=default;fontFamily=Helvetica;fontSize=11;fontColor=default;endArrow=none;endFill=0;entryX=1;entryY=0.75;entryDx=0;entryDy=0;" edge="1" parent="NqdS10v-dnyxQDhLEZVA-262" source="NqdS10v-dnyxQDhLEZVA-261" target="NqdS10v-dnyxQDhLEZVA-196">
          <mxGeometry relative="1" as="geometry">
            <mxPoint x="289.59183673469386" y="79.26829268292681" as="targetPoint" />
            <Array as="points">
              <mxPoint x="330" y="74.8780487804878" />
              <mxPoint x="330" y="89.02439024390245" />
              <mxPoint x="294.0816326530612" y="89.02439024390245" />
              <mxPoint x="294.0816326530612" y="76.82926829268294" />
              <mxPoint x="282.40816326530614" y="76.82926829268294" />
            </Array>
          </mxGeometry>
        </mxCell>
        <mxCell id="NqdS10v-dnyxQDhLEZVA-261" value="" style="shape=step;perimeter=stepPerimeter;whiteSpace=wrap;html=1;fixedSize=1;rotation=-180;fillColor=#f8cecc;strokeColor=#b85450;size=1.4285714285715585;" vertex="1" parent="NqdS10v-dnyxQDhLEZVA-262">
          <mxGeometry x="298.57142857142856" y="65.0829268292683" width="26.93877551020408" height="19.512195121951216" as="geometry" />
        </mxCell>
        <mxCell id="NqdS10v-dnyxQDhLEZVA-269" style="edgeStyle=orthogonalEdgeStyle;rounded=0;orthogonalLoop=1;jettySize=auto;html=1;fontFamily=UGent Panno Text;fontSize=22;fontColor=default;strokeColor=#82B366;strokeWidth=3.5;entryX=0.5;entryY=0;entryDx=0;entryDy=0;startArrow=classic;startFill=1;" edge="1" parent="1" source="NqdS10v-dnyxQDhLEZVA-264" target="NqdS10v-dnyxQDhLEZVA-14">
          <mxGeometry relative="1" as="geometry">
            <mxPoint x="390" y="300" as="targetPoint" />
            <Array as="points">
              <mxPoint x="385" y="249" />
            </Array>
          </mxGeometry>
        </mxCell>
        <mxCell id="NqdS10v-dnyxQDhLEZVA-264" value="" style="sketch=0;outlineConnect=0;fontColor=#232F3E;gradientColor=none;fillColor=#82B366;strokeColor=none;dashed=0;verticalLabelPosition=bottom;verticalAlign=top;align=center;html=1;fontSize=12;fontStyle=0;aspect=fixed;pointerEvents=1;shape=mxgraph.aws4.iot_thing_plc;rounded=0;fontFamily=UGent Panno Text;" vertex="1" parent="1">
          <mxGeometry x="216.5" y="202" width="78" height="78" as="geometry" />
        </mxCell>
        <mxCell id="NqdS10v-dnyxQDhLEZVA-265" value="" style="sketch=0;outlineConnect=0;fontColor=#232F3E;gradientColor=none;fillColor=#6C8EBF;strokeColor=none;dashed=0;verticalLabelPosition=bottom;verticalAlign=top;align=center;html=1;fontSize=12;fontStyle=0;aspect=fixed;pointerEvents=1;shape=mxgraph.aws4.braket_chip;rounded=0;fontFamily=UGent Panno Text;" vertex="1" parent="1">
          <mxGeometry x="470" y="202" width="78" height="78" as="geometry" />
        </mxCell>
        <mxCell id="NqdS10v-dnyxQDhLEZVA-270" value="ADCs/DACs" style="text;html=1;strokeColor=none;fillColor=none;align=center;verticalAlign=middle;whiteSpace=wrap;rounded=0;fontSize=30;fontFamily=UGent Panno Text;fontColor=default;" vertex="1" parent="1">
          <mxGeometry x="210" y="280" width="91" height="30" as="geometry" />
        </mxCell>
        <mxCell id="NqdS10v-dnyxQDhLEZVA-272" value="" style="endArrow=classic;startArrow=classic;html=1;rounded=0;fontFamily=UGent Panno Text;fontSize=22;fontColor=default;strokeColor=#6C8EBF;strokeWidth=3;" edge="1" parent="1">
          <mxGeometry width="50" height="50" relative="1" as="geometry">
            <mxPoint x="290" y="220" as="sourcePoint" />
            <mxPoint x="480" y="220" as="targetPoint" />
          </mxGeometry>
        </mxCell>
        <mxCell id="NqdS10v-dnyxQDhLEZVA-273" value="Integrated controller" style="text;html=1;strokeColor=none;fillColor=none;align=center;verticalAlign=middle;whiteSpace=wrap;rounded=0;fontSize=28;fontFamily=UGent Panno Text;fontColor=default;" vertex="1" parent="1">
          <mxGeometry x="407.38" y="280" width="203.25" height="30" as="geometry" />
        </mxCell>
        <mxCell id="NqdS10v-dnyxQDhLEZVA-274" value="&lt;font style=&quot;font-size: 28px;&quot;&gt;Photonic IC&lt;/font&gt;" style="text;html=1;strokeColor=none;fillColor=none;align=center;verticalAlign=middle;whiteSpace=wrap;rounded=0;fontSize=22;fontFamily=UGent Panno Text;fontColor=default;" vertex="1" parent="1">
          <mxGeometry x="302.75" y="530" width="164.5" height="30" as="geometry" />
        </mxCell>
        <mxCell id="NqdS10v-dnyxQDhLEZVA-275" value="Photonic processor" style="text;html=1;strokeColor=none;fillColor=none;align=center;verticalAlign=middle;whiteSpace=wrap;rounded=0;fontSize=32;fontFamily=UGent Panno Text;fontColor=default;fontStyle=1" vertex="1" parent="1">
          <mxGeometry x="271.38" y="160" width="227.25" height="30" as="geometry" />
        </mxCell>
        <mxCell id="NqdS10v-dnyxQDhLEZVA-280" style="edgeStyle=orthogonalEdgeStyle;rounded=0;orthogonalLoop=1;jettySize=auto;html=1;exitX=0;exitY=0.5;exitDx=0;exitDy=0;entryX=1;entryY=0.133;entryDx=0;entryDy=0;entryPerimeter=0;fontFamily=UGent Panno Text;fontSize=22;fontColor=default;strokeWidth=3;strokeColor=#82B366;" edge="1" parent="1" source="NqdS10v-dnyxQDhLEZVA-276" target="NqdS10v-dnyxQDhLEZVA-14">
          <mxGeometry relative="1" as="geometry" />
        </mxCell>
        <mxCell id="NqdS10v-dnyxQDhLEZVA-276" value="High speed&lt;br&gt;DAC" style="shape=step;perimeter=stepPerimeter;whiteSpace=wrap;html=1;fixedSize=1;rounded=0;fontFamily=UGent Panno Text;fontSize=28;fontColor=#FFFFFF;fillColor=#6C8EBF;gradientColor=#82B366;strokeColor=none;gradientDirection=east;rotation=0;flipH=1;flipV=0;" vertex="1" parent="1">
          <mxGeometry x="640" y="299" width="170" height="80" as="geometry" />
        </mxCell>
        <mxCell id="NqdS10v-dnyxQDhLEZVA-279" style="edgeStyle=orthogonalEdgeStyle;rounded=0;orthogonalLoop=1;jettySize=auto;html=1;exitX=0;exitY=0.5;exitDx=0;exitDy=0;entryX=0.998;entryY=0.638;entryDx=0;entryDy=0;entryPerimeter=0;fontFamily=UGent Panno Text;fontSize=22;fontColor=default;strokeColor=#82B366;strokeWidth=4;" edge="1" parent="1" source="NqdS10v-dnyxQDhLEZVA-278" target="NqdS10v-dnyxQDhLEZVA-14">
          <mxGeometry relative="1" as="geometry" />
        </mxCell>
        <mxCell id="NqdS10v-dnyxQDhLEZVA-278" value="High speed&lt;br&gt;DAC" style="shape=step;perimeter=stepPerimeter;whiteSpace=wrap;html=1;fixedSize=1;rounded=0;fontFamily=UGent Panno Text;fontSize=28;fontColor=#FFFFFF;fillColor=#6C8EBF;gradientColor=#82B366;strokeColor=none;gradientDirection=east;rotation=0;flipH=1;flipV=0;" vertex="1" parent="1">
          <mxGeometry x="640" y="410" width="170" height="80" as="geometry" />
        </mxCell>
        <mxCell id="NqdS10v-dnyxQDhLEZVA-283" style="edgeStyle=orthogonalEdgeStyle;rounded=0;orthogonalLoop=1;jettySize=auto;html=1;exitX=1;exitY=0.5;exitDx=0;exitDy=0;entryX=0.001;entryY=0.131;entryDx=0;entryDy=0;entryPerimeter=0;fontFamily=UGent Panno Text;fontSize=22;fontColor=default;strokeColor=#82B366;startArrow=classic;startFill=1;endArrow=none;endFill=0;strokeWidth=3;" edge="1" parent="1" source="NqdS10v-dnyxQDhLEZVA-281" target="NqdS10v-dnyxQDhLEZVA-14">
          <mxGeometry relative="1" as="geometry" />
        </mxCell>
        <mxCell id="NqdS10v-dnyxQDhLEZVA-281" value="High speed&lt;br&gt;ADC" style="shape=step;perimeter=stepPerimeter;whiteSpace=wrap;html=1;fixedSize=1;rounded=0;fontFamily=UGent Panno Text;fontSize=28;fontColor=#FFFFFF;fillColor=#6C8EBF;gradientColor=#82B366;strokeColor=none;gradientDirection=east;rotation=0;flipH=0;flipV=0;" vertex="1" parent="1">
          <mxGeometry x="-40" y="299" width="170" height="80" as="geometry" />
        </mxCell>
        <mxCell id="NqdS10v-dnyxQDhLEZVA-284" style="edgeStyle=orthogonalEdgeStyle;rounded=0;orthogonalLoop=1;jettySize=auto;html=1;exitX=1;exitY=0.5;exitDx=0;exitDy=0;entryX=-0.002;entryY=0.676;entryDx=0;entryDy=0;entryPerimeter=0;fontFamily=UGent Panno Text;fontSize=22;fontColor=default;strokeColor=#82B366;strokeWidth=4;endArrow=none;endFill=0;startArrow=classic;startFill=1;" edge="1" parent="1" source="NqdS10v-dnyxQDhLEZVA-282" target="NqdS10v-dnyxQDhLEZVA-14">
          <mxGeometry relative="1" as="geometry" />
        </mxCell>
        <mxCell id="NqdS10v-dnyxQDhLEZVA-282" value="&lt;font style=&quot;font-size: 28px;&quot;&gt;High speed&lt;br&gt;ADC&lt;/font&gt;" style="shape=step;perimeter=stepPerimeter;whiteSpace=wrap;html=1;fixedSize=1;rounded=0;fontFamily=UGent Panno Text;fontSize=22;fontColor=#FFFFFF;fillColor=#6C8EBF;gradientColor=#82B366;strokeColor=none;gradientDirection=east;rotation=0;flipH=0;flipV=0;" vertex="1" parent="1">
          <mxGeometry x="-40" y="419" width="170" height="80" as="geometry" />
        </mxCell>
        <mxCell id="NqdS10v-dnyxQDhLEZVA-285" value="" style="rounded=0;whiteSpace=wrap;html=1;fontFamily=UGent Panno Text;fontSize=22;fillColor=#dae8fc;strokeColor=#6C8EBF;movable=1;resizable=1;rotatable=1;deletable=1;editable=1;locked=0;connectable=1;" vertex="1" parent="1">
          <mxGeometry x="170" y="-220" width="430" height="350" as="geometry" />
        </mxCell>
        <mxCell id="NqdS10v-dnyxQDhLEZVA-286" value="Digital electronics" style="text;html=1;strokeColor=none;fillColor=none;align=center;verticalAlign=middle;whiteSpace=wrap;rounded=0;fontSize=32;fontFamily=UGent Panno Text;fontColor=default;fontStyle=1" vertex="1" parent="1">
          <mxGeometry x="250.25" y="-250" width="269.5" height="30" as="geometry" />
        </mxCell>
        <mxCell id="NqdS10v-dnyxQDhLEZVA-290" value="" style="group" vertex="1" connectable="0" parent="1">
          <mxGeometry x="-80" y="-80" height="539" as="geometry" />
        </mxCell>
        <mxCell id="NqdS10v-dnyxQDhLEZVA-289" value="" style="shape=flexArrow;endArrow=none;html=1;rounded=0;fontFamily=UGent Panno Text;fontSize=22;fontColor=default;endFill=0;exitX=0;exitY=0.5;exitDx=0;exitDy=0;strokeColor=none;fillColor=#6C8EBF;" edge="1" parent="NqdS10v-dnyxQDhLEZVA-290" source="NqdS10v-dnyxQDhLEZVA-282">
          <mxGeometry width="50" height="50" relative="1" as="geometry">
            <mxPoint x="-220" y="550" as="sourcePoint" />
            <mxPoint y="420" as="targetPoint" />
            <Array as="points">
              <mxPoint y="539" />
            </Array>
          </mxGeometry>
        </mxCell>
        <mxCell id="NqdS10v-dnyxQDhLEZVA-297" value="" style="shape=flexArrow;endArrow=classic;html=1;rounded=0;fontFamily=UGent Panno Text;fontSize=22;fontColor=default;entryX=1;entryY=0.5;entryDx=0;entryDy=0;strokeColor=none;fillColor=#6C8EBF;" edge="1" parent="1" source="NqdS10v-dnyxQDhLEZVA-305" target="NqdS10v-dnyxQDhLEZVA-276">
          <mxGeometry width="50" height="50" relative="1" as="geometry">
            <mxPoint x="860" y="140" as="sourcePoint" />
            <mxPoint x="910" y="90" as="targetPoint" />
            <Array as="points">
              <mxPoint x="880" y="-80" />
              <mxPoint x="880" y="339" />
            </Array>
          </mxGeometry>
        </mxCell>
        <mxCell id="NqdS10v-dnyxQDhLEZVA-298" value="" style="shape=flexArrow;endArrow=classic;html=1;rounded=0;fontFamily=UGent Panno Text;fontSize=22;fontColor=default;entryX=1;entryY=0.5;entryDx=0;entryDy=0;strokeColor=none;fillColor=#6C8EBF;" edge="1" parent="1" target="NqdS10v-dnyxQDhLEZVA-278">
          <mxGeometry width="50" height="50" relative="1" as="geometry">
            <mxPoint x="880" y="340" as="sourcePoint" />
            <mxPoint x="930" y="420" as="targetPoint" />
            <Array as="points">
              <mxPoint x="880" y="450" />
            </Array>
          </mxGeometry>
        </mxCell>
        <mxCell id="NqdS10v-dnyxQDhLEZVA-299" value="" style="sketch=0;outlineConnect=0;fontColor=#232F3E;gradientColor=none;fillColor=#6C8EBF;strokeColor=none;dashed=0;verticalLabelPosition=bottom;verticalAlign=top;align=center;html=1;fontSize=12;fontStyle=0;aspect=fixed;pointerEvents=1;shape=mxgraph.aws4.braket_embedded_simulator;rounded=0;fontFamily=UGent Panno Text;" vertex="1" parent="1">
          <mxGeometry x="470" y="20" width="78" height="78" as="geometry" />
        </mxCell>
        <mxCell id="NqdS10v-dnyxQDhLEZVA-300" value="" style="endArrow=classic;startArrow=classic;html=1;rounded=0;fontFamily=UGent Panno Text;fontSize=22;fontColor=default;strokeColor=#6C8EBF;strokeWidth=3;" edge="1" parent="1" source="NqdS10v-dnyxQDhLEZVA-299" target="NqdS10v-dnyxQDhLEZVA-265">
          <mxGeometry width="50" height="50" relative="1" as="geometry">
            <mxPoint x="300" y="230" as="sourcePoint" />
            <mxPoint x="510" y="170" as="targetPoint" />
          </mxGeometry>
        </mxCell>
        <mxCell id="NqdS10v-dnyxQDhLEZVA-301" value="Embedded processor" style="text;html=1;strokeColor=none;fillColor=none;align=center;verticalAlign=middle;whiteSpace=wrap;rounded=0;fontSize=28;fontFamily=UGent Panno Text;fontColor=default;" vertex="1" parent="1">
          <mxGeometry x="426.75" y="-50" width="164.5" height="70" as="geometry" />
        </mxCell>
        <mxCell id="NqdS10v-dnyxQDhLEZVA-305" value="" style="sketch=0;outlineConnect=0;fontColor=#232F3E;gradientColor=none;fillColor=#6C8EBF;strokeColor=none;dashed=0;verticalLabelPosition=bottom;verticalAlign=top;align=center;html=1;fontSize=12;fontStyle=0;aspect=fixed;pointerEvents=1;shape=mxgraph.aws4.iot_thing_plc;rounded=0;fontFamily=UGent Panno Text;" vertex="1" parent="1">
          <mxGeometry x="216.75" y="-185" width="210" height="210" as="geometry" />
        </mxCell>
        <mxCell id="NqdS10v-dnyxQDhLEZVA-306" value="FPGA" style="text;html=1;strokeColor=none;fillColor=none;align=center;verticalAlign=middle;whiteSpace=wrap;rounded=0;fontSize=28;fontFamily=UGent Panno Text;fontColor=default;" vertex="1" parent="1">
          <mxGeometry x="239.5" y="-215" width="164.5" height="30" as="geometry" />
        </mxCell>
        <mxCell id="NqdS10v-dnyxQDhLEZVA-288" value="" style="shape=flexArrow;endArrow=classic;html=1;rounded=0;fontFamily=UGent Panno Text;fontSize=22;fontColor=default;exitX=0;exitY=0.5;exitDx=0;exitDy=0;strokeColor=none;fillColor=#6C8EBF;" edge="1" parent="1" source="NqdS10v-dnyxQDhLEZVA-281" target="NqdS10v-dnyxQDhLEZVA-305">
          <mxGeometry width="50" height="50" relative="1" as="geometry">
            <mxPoint x="-160" y="420" as="sourcePoint" />
            <mxPoint x="30" y="80" as="targetPoint" />
            <Array as="points">
              <mxPoint x="-80" y="339" />
              <mxPoint x="-80" y="-80" />
            </Array>
          </mxGeometry>
        </mxCell>
        <mxCell id="NqdS10v-dnyxQDhLEZVA-307" value="" style="shape=flexArrow;endArrow=classic;html=1;rounded=0;fontFamily=UGent Panno Text;fontSize=22;fontColor=default;startArrow=block;strokeColor=none;fillColor=#6C8EBF;" edge="1" parent="1" source="NqdS10v-dnyxQDhLEZVA-305">
          <mxGeometry width="50" height="50" relative="1" as="geometry">
            <mxPoint x="320" y="30" as="sourcePoint" />
            <mxPoint x="470" y="70" as="targetPoint" />
            <Array as="points">
              <mxPoint x="320" y="70" />
            </Array>
          </mxGeometry>
        </mxCell>
      </root>
    </mxGraphModel>
  </diagram>
</mxfile>
